<svg width="36" height="36" xmlns="http://www.w3.org/2000/svg"><path fill="#4FC7EC" d="M16.579 19.622c.954 0 1.493.576 1.493 1.541 0 1.075-.628 1.714-1.643 1.714-.276 0-.477-.016-.64-.063v-3.099c.137-.047.401-.093.79-.093z"/><path fill="#242238" d="M25.826 3.744L29.98 7.91l-.016.015-4.101.003-.039-4.181zM8.835 6.653h12.88v7.437H6.075V6.653h2.76z"/><path fill="#4FC7EC" d="M29.995 7.925V32.26H8.835V14.09h12.88V6.653H8.835V3.74h16.988l.003.004-.003.003.039 4.181 4.101-.003.016-.015.016.015zm-5.713 15.94l.303-1.098c-.357-.16-.858-.304-1.537-.304-1.42 0-2.279.786-2.279 1.814 0 .876.653 1.43 1.654 1.778.724.26 1.01.474 1.01.85 0 .392-.331.652-.957.652a3.47 3.47 0 01-1.51-.376l-.277 1.126c.34.188 1.019.367 1.707.367 1.653 0 2.43-.858 2.43-1.868 0-.849-.5-1.403-1.563-1.796-.778-.295-1.117-.465-1.117-.849 0-.313.286-.581.875-.581.59 0 1.02.17 1.26.286zm-5.094-.272c.502-.592.778-1.465.778-2.492 0-1.028-.364-1.9-.903-2.43-.565-.56-1.405-.84-2.585-.84-1.166 0-1.994.093-2.583.217v10.357h1.894v-3.753c.176.031.401.046.652.046 1.13 0 2.094-.342 2.747-1.105z"/><path fill="#242238" d="M23.263 25.01c-.778-.296-1.117-.465-1.117-.85 0-.312.286-.58.875-.58.59 0 1.02.17 1.26.286l.304-1.099c-.357-.16-.858-.304-1.537-.304-1.42 0-2.279.786-2.279 1.814 0 .876.653 1.43 1.654 1.778.724.26 1.01.474 1.01.85 0 .392-.331.651-.957.651a3.47 3.47 0 01-1.51-.375l-.277 1.126c.34.188 1.019.367 1.707.367 1.653 0 2.43-.858 2.43-1.868 0-.849-.5-1.403-1.563-1.796zm-6.806-7.18c-1.166 0-1.973.094-2.605.218v10.358h1.898v-3.754c.21.031.42.046.671.046 1.13 0 2.105-.342 2.757-1.105.502-.592.783-1.465.783-2.492 0-1.028-.372-1.9-.911-2.43-.565-.56-1.414-.84-2.593-.84zm-.048 5.047c-.276 0-.448-.016-.659-.063v-3.099c.07-.047.42-.094.81-.094.953 0 1.492.577 1.492 1.542 0 1.075-.627 1.714-1.643 1.714z"/><path fill="#4FC7EC" d="M17.38 9.098c-.309-.233-.689-.342-1.298-.342-.365 0-.754.023-.965.066v3.147a5.7 5.7 0 00.809.047c.627 0 1.133-.133 1.47-.413.31-.261.529-.685.529-1.298 0-.566-.212-.96-.545-1.207zm-1.345 2.352c-.09 0-.215 0-.285-.013V9.34c.07-.014.2-.028.36-.028.623 0 1.013.352 1.008 1.017 0 .765-.427 1.126-1.083 1.121zm-2.268-1.368c-.414-.157-.594-.247-.594-.452 0-.166.152-.309.466-.309.313 0 .542.09.67.153l.162-.585a1.968 1.968 0 00-.818-.162c-.756 0-1.212.419-1.212.965 0 .466.347.76.88.946.384.138.536.251.536.451 0 .21-.175.348-.508.348-.31 0-.609-.1-.804-.2l-.147.598c.181.1.542.195.908.195.88 0 1.293-.456 1.293-.993 0-.451-.266-.746-.832-.955zm-2.05-1.07c-.213-.17-.56-.256-1.007-.256-.441 0-.726.029-1.007.066v3.201h.703v-1.186c.07.01.188.015.283.015.427 0 .811-.105 1.058-.338.19-.18.304-.447.304-.76a.93.93 0 00-.334-.742zm-1.033 1.284c-.104 0-.207-.005-.278-.02v-.945c.07-.014.188-.029.335-.029.362 0 .565.176.565.47 0 .329-.237.524-.622.524z"/></svg>