<svg width="36" height="36" xmlns="http://www.w3.org/2000/svg"><path fill="#26000D" d="M25.826 3.744L29.98 7.91l-.016.015-4.101.003-.039-4.181zM8.835 6.653h12.88v7.437H6.075V6.653h2.76z"/><path fill="#FF418A" d="M29.995 7.925V32.26H8.835V14.09h12.88V6.653H8.835V3.74h16.988l.003.004-.003.003.039 4.181 4.101-.003.016-.015.016.015z"/><path fill="#FF418A" d="M17.657 10.332c.004-.55-.318-.84-.833-.84-.133 0-.22.012-.27.023v1.731c.05.013.133.013.207.013.542.004.896-.295.896-.927zm-.896-1.3c.503 0 .83.09 1.084.283.275.204.447.53.447.998 0 .506-.184.854-.439 1.07-.279.232-.703.343-1.221.343-.31 0-.53-.02-.68-.04V9.087c.22-.036.507-.055.81-.055zm-2.734 2.227c.542.004.895-.295.895-.927.005-.55-.317-.84-.832-.84-.133 0-.22.012-.271.023v1.731c.051.013.134.013.208.013zm1.084-1.944c.275.204.447.53.447.998 0 .506-.184.854-.44 1.07-.278.232-.702.343-1.22.343-.31 0-.53-.02-.68-.04V9.087c.22-.036.507-.055.81-.055.502 0 .828.09 1.083.283zm-2.922 1.613h.011a9.86 9.86 0 01-.05-1.103v-.774h.549v2.647h-.628l-.566-1.02a10.183 10.183 0 01-.459-.936l-.012.004c.017.35.024.723.024 1.155v.797h-.55V9.051h.699l.55.97c.157.28.314.61.432.907zm-2.8-1.877h.6v2.647h-.6z"/><path fill="#26000D" d="M23.84 29.265h-1.602l-.083-.854h-.024c-.367.652-1.067.985-1.815.985-1.376 0-2.478-1.175-2.478-2.978-.013-1.957 1.21-3.083 2.597-3.083.712 0 1.269.249 1.53.653h.023v-3.144h1.804v6.69c0 .652.023 1.34.047 1.731zm-1.851-2.585v-.759a2.87 2.87 0 00-.024-.321c-.107-.486-.498-.89-1.056-.89-.818 0-1.245.736-1.245 1.649 0 .984.486 1.602 1.234 1.602.52 0 .936-.355 1.043-.866a1.52 1.52 0 00.048-.415zm-7.107-6.45h1.815v9.035h-1.815z"/></svg>