<svg width="36" height="36" xmlns="http://www.w3.org/2000/svg"><path fill="#86EB00" d="M4.5 4.5h27v27h-27z"/><path fill="#152600" d="M6.138 6.09h23.759v23.758H6.138z"/><path fill="#86EB00" d="M21.143 18.084c.007.028.035.036.056.021a1.39 1.39 0 00.183-.218c.823-1.11 1.652-2.221 2.468-3.332.127-.17.267-.296.485-.289.492.014.682.014 1.181.021.106 0 .549-.028.605.085.063.133-.084.218-.155.31-.928 1.16-1.849 2.32-2.798 3.459-.197.239-.19.393-.014.632 1.097 1.498 2.173 3.003 3.255 4.507.064.085.155.134.106.247-.063.14-.183.112-.295.112-.598.007-1.175 0-1.765.021-.218.007-.366-.084-.485-.26-.858-1.266-1.723-2.524-2.588-3.783-.05-.077-.105-.147-.169-.232a.027.027 0 00-.049.007c-.042.12-.042.204-.042.295-.007 1.203-.014 2.405.007 3.608.007.316-.07.344-.464.344-.387 0-.774.007-1.16.007-.338 0-.422-.063-.422-.373.014-2.988.007-5.983.007-8.971 0-.957.007-1.913-.007-2.87-.007-.28.056-.35.429-.344.351 0 .696.007 1.047 0 .443-.007.577.007.577.38-.014 2.102-.007 4.205-.007 6.307-.007.169-.014.183.014.31zm-8.529.176c0-1.666-.007-3.326.007-4.992 0-.274-.063-.366-.351-.359-.865.021-1.73 0-2.595.007-.21 0-.31-.035-.26-.28.077-.409.12-.824.169-1.238.028-.218.098-.324.358-.324 2.496.014 4.992.007 7.488 0 .233 0 .317.211.33.303.05.386.085.78.12 1.174.029.31-.028.372-.33.365-.83-.02-1.666.007-2.496-.014-.324-.007-.387.106-.387.401.007 3.27.007 6.546.007 9.816 0 .513 0 .513-.506.513-.394 0-.788 0-1.181.007-.282 0-.366-.07-.366-.359-.007-1.666-.007-3.34-.007-5.02z"/></svg>