<svg width="36" height="36" xmlns="http://www.w3.org/2000/svg"><path d="M2.233 2.34h31.534v31.32H2.233V2.341zm13.235 23.343c.104.063.682.451.76.55-2.548.095-4.68.248-6.821-1.154-1.345-.88-2.78-2.688-2.968-5.002-.361-4.382 3.376-8.115 7.927-7.331 2.508.432 3.564 1.853 4.786 3.043.34.33.64.643.976.98.253.254.747.603.777 1.187a1.154 1.154 0 01-.8 1.16c-.702.208-1.096-.221-1.373-.497-.67-.669-1.294-1.298-1.951-1.957-.61-.612-1.223-1.255-2.356-1.555-3.624-.965-6.44 2.38-5.567 5.523.58 2.077 2.361 3.306 4.494 3.31.41.002.416.157.64.374.174.169.305.306.476.477l1 .892zm13.621-4.886c-.147.708-.949 1.929-1.308 2.363-1.833 2.213-4.6 3.488-7.77 2.966-3.1-.51-4.604-2.425-6.549-4.374-.39-.39-1.639-1.512-1.76-1.977-.244-.317.074-1.492 1.103-1.48.63.008 1.118.657 1.624 1.171l2.798 2.794c.909.851 2.131 1.605 3.897 1.678 4.818.194 7.982-5.212 5.057-9.405-1.488-2.132-4.39-3.05-6.96-2.067-.357.137-.659.343-.963.455-.177-.094-.326-.222-.496-.333-.771-.508-.861-.475-1.64-.859.107-.355 1.775-1.196 2.05-1.316 2.623-1.145 5.842-.67 7.946.865 2.067 1.51 3.453 3.85 3.47 6.633.003.7-.195 2.484-.499 2.886zm-24.011-.061c.218 2.12 1.743 4.325 3.429 5.472 2.422 1.645 4.086 1.47 7.433 1.47h4.455c3.643 0 5.545-.642 8.047-3.085l.909-1.137c.087-.098.03-.04.108-.098.026-.159.28-.512.394-.718a9.495 9.495 0 00.936-2.478c.582-2.449.1-5.214-1.242-7.312-2.637-4.117-7.964-5.799-12.524-3.492-.73.37-2.159 1.318-2.575 1.914-.36.01-.794-.065-1.19-.067a8.227 8.227 0 00-7.782 5.378c-.427 1.155-.66 2.79-.398 4.153z" fill-rule="evenodd" fill="red"/></svg>