<svg width="36" height="36" xmlns="http://www.w3.org/2000/svg"><path fill="#37F902" d="M4.5 4.5h27v27h-27z"/><path fill="#072500" d="M6.117 6.117h23.759v23.759H6.117z"/><path fill="#35F902" d="M16.734 18.612c-.534 3.016-2.559 4.76-5.526 4.95-.88.056-1.765-.014-2.651-.007-.408.007-.541-.176-.541-.57.007-3.867.007-7.734 0-11.601 0-.275.042-.479.372-.479 1.414.007 2.834-.19 4.24.113 2.356.513 3.825 2.152 4.127 4.563.162 1.02.176 2.025-.02 3.03z"/><path fill="#35F903" d="M28.709 14.28c.035.486-.183 1.034-.303 1.54-.52 2.201-1.083 4.388-1.645 6.582-.274 1.061-.281 1.061-1.4 1.061-1.258 0-1.033.14-1.25-.991-.338-1.758-.683-3.523-1.048-5.414-.24.801-.345 1.357-.5 2.116-.302 1.308-.506 2.63-.886 3.924-.091.316-.218.372-.485.372-.443 0-.837.007-1.272 0-.443-.007-.62-.154-.71-.562-.584-2.637-1.175-5.274-1.772-7.903-.17-.739-.099-.83.646-.83h.17c1.272-.007 1.286-.014 1.497 1.181.26 1.519.492 3.045.738 4.57.035.303.099.781.134 1.083.105-.4.175-.738.288-1.413.31-1.49.626-2.988.914-4.486.183-.928.162-.95 1.118-.935 1.547.028 1.3-.295 1.589 1.322.281 1.61.24 1.4.527 3.01.021.105.415 2.15.479 2.284.253-1.455.47-2.742.724-4.021.161-.81.218-1.639.52-2.412.633-.246 1.28-.127 1.927-.078z"/><path fill="#072500" d="M10.174 17.177c0-1.286.014-2.573-.007-3.86-.007-.422.12-.576.57-.576.654.007 1.286.07 1.884.33 1.294.549 1.863 1.638 1.976 2.946.091 1.09.148 2.208-.281 3.27-.696 1.73-1.92 2.447-3.685 2.313-.358-.028-.47-.148-.464-.5.014-1.307.007-2.615.007-3.923z"/><path fill="#35F903" d="M28.624 14.99c.169-.738.267-.822-.485-.822h-.169c-1.272-.007-1.286-.014-1.497 1.181-.26 1.519-.493 3.045-.739 4.57l2.89-4.928z"/></svg>