<svg width="36" height="36" xmlns="http://www.w3.org/2000/svg"><path fill="#FF26BE" d="M29.625 35.1H6.375A6.37 6.37 0 010 28.725V6.375A6.37 6.37 0 016.375 0h23.25A6.37 6.37 0 0136 6.375v22.35a6.37 6.37 0 01-6.375 6.375z"/><path fill="#2E001F" d="M29.055 33.6H6.945c-3 0-5.445-2.446-5.445-5.445V6.945c0-3 2.446-5.445 5.445-5.445H29.04a5.444 5.444 0 015.445 5.445V28.14a5.436 5.436 0 01-5.43 5.46z"/><path fill="#FFD9F2" d="M14.234 16.425l4.2 8.07c.076.119.031.24-.09.24h-2.61c-.166 0-.241-.045-.316-.195-.96-1.98-1.935-3.96-2.94-6.09h-.03c-.9 2.011-1.891 4.126-2.85 6.106-.075.12-.15.166-.271.166H6.854c-.15 0-.165-.12-.089-.21l4.11-7.831L6.9 8.761c-.09-.12 0-.21.09-.21h2.58c.15 0 .21.03.27.165a315.47 315.47 0 012.805 6.015h.03c.87-1.98 1.83-4.035 2.76-6 .075-.12.12-.195.271-.195h2.415c.12 0 .166.091.09.21l-3.977 7.679zm4.937 2.445c0-3.495 2.325-6.225 6.015-6.225.315 0 .48 0 .78.03V8.7c0-.09.075-.15.15-.15h2.37c.12 0 .15.045.15.12v13.771c0 .405 0 .914.075 1.47 0 .09-.03.12-.12.166-1.26.6-2.58.87-3.84.87-3.256.013-5.582-1.996-5.58-6.077zm6.794-3.84c-.21-.09-.51-.149-.87-.149-1.89 0-3.21 1.454-3.21 3.87 0 2.761 1.35 3.871 3.046 3.871.36 0 .75-.044 1.035-.165V15.03z"/></svg>