<svg width="36" height="36" xmlns="http://www.w3.org/2000/svg"><path fill="#FE7903" d="M25.826 3.744L29.98 7.91l-.016.015-4.101.003-.039-4.181z"/><path fill="#261003" d="M29.995 7.925V32.26H8.835V14.09h12.88V6.653H8.835V3.74h16.988l.003.004-.003.003.039 4.181 4.101-.003.016-.015.016.015z"/><path fill="#FE7903" d="M8.835 6.653h12.88v7.437H6.075V6.653h2.76z"/><path fill="#261003" d="M15.191 8.73h.748v3.297h-.748zm-1.606 1.894l-.205-.7c-.059-.196-.118-.44-.166-.636h-.01c-.05.196-.098.445-.152.636l-.195.7h.728zm.142-1.894l1.023 3.297h-.802l-.255-.846h-.944l-.235.846h-.773L12.75 8.73h.978z"/><path fill="#FE7903" d="M22.735 20.639h1.87v8.235h-1.87zm-3.658-2.632l2.554 10.867h-2.004l-.635-2.79h-2.359l-.586 2.79h-1.93l2.516-10.867h2.444zm-.354 6.24l-.514-2.306c-.146-.645-.293-1.45-.415-2.096h-.024c-.122.645-.245 1.467-.38 2.096l-.488 2.305h1.821z"/></svg>