<svg width="36" height="36" xmlns="http://www.w3.org/2000/svg"><defs><linearGradient id="a" x1="384.021" x2="127.979" gradientUnits="userSpaceOnUse" y1="32.261" y2="475.74" gradientTransform="translate(0 2)"><stop offset="0%" stop-color="#FB9643"/><stop offset="100%" stop-color="#F65A70"/></linearGradient></defs><path fill="url(#a)" d="M437.019 74.98c99.974 99.975 99.974 262.065 0 362.04-99.974 99.974-262.064 99.974-362.039 0-99.974-99.974-99.974-262.064 0-362.04 99.974-99.973 262.064-99.973 362.039 0" transform="scale(.07031)"/><path fill="#FFF" d="M21.462 8.358a4.816 4.816 0 11-6.811 6.811 4.816 4.816 0 016.811-6.811m6.378 11.067a4.816 4.816 0 11-6.812 6.811 4.816 4.816 0 016.811-6.811m-12.867 0a4.816 4.816 0 11-6.811 6.811 4.816 4.816 0 016.811-6.811"/></svg>