<svg width="32" height="32" xmlns="http://www.w3.org/2000/svg"><path d="M9.02 10.15c-.035 1.133.53 1.635.545 1.953a.408.408 0 01-.205.313l-.64.448a.533.533 0 01-.282.096c-.021 0-.41.092-1.024-1.28a3.93 3.93 0 01-3.13 1.472c-.814.045-3.02-.462-2.907-2.81-.08-1.914 1.703-3.103 3.547-3.003.355.001 1.08.019 2.349.314v-.781c.135-1.323-.735-2.35-2.24-2.196-.12.001-.97-.025-2.292.506-.368.169-.415.141-.538.141-.37 0-.218-1.074-.147-1.21.26-.32 1.793-.918 3.297-.909a3.843 3.843 0 012.785.864c.64.715.958 1.661.883 2.618v3.464zM4.7 11.77c1.621-.023 2.307-.998 2.464-1.523.123-.503.102-.821.102-1.37a8.594 8.594 0 00-1.978-.244c-.757-.057-2.14.282-2.087 1.613-.062.84.556 1.57 1.498 1.524zm8.545 1.153c-.392.036-.575-.243-.633-.519l-2.49-8.232a1.91 1.91 0 01-.097-.43.23.23 0 01.193-.262c.012-.002-.106 0 1.113 0 .439-.044.582.301.627.518l1.786 7.042 1.658-7.042c.027-.16.147-.553.64-.512h.858c.109-.009.556-.025.634.519l1.671 7.131 1.844-7.131c.024-.109.136-.569.634-.519h.986c.042-.006.307-.04.262.43-.021.092.171-.534-2.637 8.494-.058.276-.241.555-.634.519h-.935c-.547.057-.625-.483-.634-.538l-1.658-6.856-1.639 6.85c-.008.054-.086.594-.634.537h-.915zm13.675.281c-.295 0-1.697-.015-2.869-.615a.64.64 0 01-.39-.595v-.537c0-.423.31-.345.442-.295.502.203.824.357 1.44.48 1.833.377 2.639-.115 2.836-.224.658-.39.71-1.284.263-1.747-.524-.44-.774-.456-2.657-1.05-.232-.065-2.185-.681-2.19-2.618-.03-1.412 1.253-2.81 3.477-2.798.633 0 2.321.207 2.778.781a.604.604 0 01.096.352v.506c0 .222-.081.333-.243.333-.386-.043-1.07-.559-2.458-.538-.345-.018-1.995.046-1.921 1.249-.021.948 1.33 1.303 1.485 1.344 1.823.549 2.433.64 3.156 1.479.857 1.113.395 2.415.218 2.772-.954 1.875-3.421 1.722-3.463 1.721zm2.01 5.243c-3.502 2.586-8.585 3.963-12.925 3.963A23.456 23.456 0 01.141 16.373c-.326-.294-.038-.698.359-.473a31.868 31.868 0 0015.844 4.206 31.511 31.511 0 0012.08-2.478c.589-.25 1.088.39.506.819zm1.459-1.664c-.448-.576-2.964-.27-4.09-.135-.34.039-.397-.256-.09-.473 2.004-1.409 5.294-1.005 5.672-.532.378.474-.102 3.77-1.978 5.346-.288.243-.563.115-.435-.205.422-1.063 1.369-3.425.921-4.001z"/></svg>