<svg width="36" height="36" xmlns="http://www.w3.org/2000/svg"><path d="M24.593 12.316v-.076h-.124v.076h.123zm.826 1.991v.037h.088c0-.042.009-.083.025-.121v-.076c-.037 0-.073.059-.107.163zm-3.228 2.509a3.954 3.954 0 00-.661-.844c0-.09.14-.222.447-.4l.875-.761a2.19 2.19 0 00.346-1.213v-.129c-.034-.388-.315-.7-.844-.94-.315-.211-.878-.328-1.688-.35a9.965 9.965 0 00-2.666.742 10.85 10.85 0 01-1.02.644v.064a.242.242 0 00.1-.045.06.06 0 01.073.06l.065-.034h.031v.028a3.594 3.594 0 01-.711.562l.036.068h-.03l-.08-.028c0 .022-.03.04-.095.045v.028l.076.095a.281.281 0 01-.11-.025.529.529 0 00-.326.177l.045-.194c.144-.602.253-1.213.326-1.828v-.034a1.33 1.33 0 01-.318-.295 1.043 1.043 0 000-.138v-.028h-.03c-.346.52-1.012 1.405-2 2.658-.75.89-1.139 1.386-1.165 1.485-.306.318-.453.509-.439.562-.081.054-.115.105-.1.164a.034.034 0 01-.046-.026.892.892 0 01-.585.408l-.281.062a.065.065 0 00-.053.079v.033l.1-.022v.028l-.23.09-.408.096h-.213c-.031.03.171 0 .092.017l-.28.061c-.164.037-.251.023-.282-.042h-.031a.155.155 0 010 .068l.034-.045-.214.05c-.015-.099-.305-.46-.87-1.085 0-.121.19-.296.597-.523l1.148-1.01c.257-.33.41-.86.458-1.59l-.014-.165c-.045-.515-.416-.928-1.125-1.249-.413-.281-1.159-.43-2.233-.453a13.452 13.452 0 00-3.48.962c-.43.308-.88.59-1.344.844v.09a.352.352 0 00.135-.053.076.076 0 01.096.073l.09-.05h.045v.041a5.25 5.25 0 01-.94.732l.051.078h-.042l-.096-.033c0 .025-.042.045-.135.053v.048l.105.115a.382.382 0 01-.141-.028.892.892 0 00-.6.442l.051.078c.087-.094.188-.175.299-.239v.13a.43.43 0 00-.135.053l.118.158a3.55 3.55 0 01.683-.563c.124.03.189.07.191.113h.096a7.312 7.312 0 012.008-1.086v.09c-.124.187-.207.281-.25.281.003.061.026.12.065.166.01.113-.29.872-.903 2.278-1.378 3.25-2.539 5.655-3.482 7.217a.3.3 0 00.056.127 1.17 1.17 0 00.442-.17h.05v.09h.087l.09-.05c0 .026.031.04.093.034v.09a.796.796 0 01-.135.383 2.07 2.07 0 00-.303.675v.042h.087c.342-.372.632-.79.86-1.24a13.73 13.73 0 002.532-.951 2.36 2.36 0 001.333-.459v-.047l-.22.064H5.3v-.048c.315-.021.62-.118.891-.28.837-.646 1.468-1.102 1.896-1.37.877-.646 1.446-1.274 1.707-1.885l.146-.034c.07.004.141.004.211 0 0-.022 0-.036.028-.042.197-.02.102 0 .228-.017l.33-.076c-.02 0-.029.017-.023.037l.05-.031h-.025.056l-.025.017c.04.007.081.007.121 0l.022.095-1.524 2.343-.332.417-.163.54h.031l.163-.068-.053.21.017.063.045.056c-.02 0-.029.02-.023.042v.034l.068-.017c.099-.086.141-.165.126-.236.07.018.142.024.214.017v.034c-.065.016-.099.067-.104.157v.034h.036c.546-.596 1.882-2.63 2.954-4.014-.034-.15.528-.358 1.687-.624h.037c.04.187-.053.625-.282 1.313a3.58 3.58 0 00-.2.687 5.343 5.343 0 00-.258.905l-.408 1.339a12.229 12.229 0 00-.607 2.168.264.264 0 01.112 0l.056-.05a.034.034 0 00.045.025l.003-.107h.177c.054 0 .096-.078.135-.2 0-.18.028-.28.11-.298.042-.224.11-.443.203-.652.043-.253.12-.499.227-.731.155-.563.282-.844.34-.86l.018.067-.113.28a14.256 14.256 0 01-.596 2.068l.059.25h.036c.488-1.048 1.19-3.123 2.104-6.227a.813.813 0 01.391-.632l-.053-.057v-.028a.357.357 0 00.22-.123c0-.023-.097-.06-.282-.105l.455-1.968c.05-.055.11-.1.175-.135v.098a.242.242 0 00-.101.045l.087.124c.153-.168.326-.316.514-.442.096.026.141.06.147.09h.067a5.555 5.555 0 011.527-.818v.065c-.092.138-.154.209-.188.21a.281.281 0 00.042.127c-.18.594-.407 1.174-.678 1.733a47.095 47.095 0 01-2.655 5.498.245.245 0 00.048.096.844.844 0 00.332-.13h.03v.065h.074l.065-.034c0 .019.023.026.07.023v.07a.593.593 0 01-.112.298 1.493 1.493 0 00-.24.512v.034h.068c.26-.283.48-.6.653-.942.659-.178 1.3-.42 1.912-.72.367-.01.722-.132 1.018-.35v-.033l-.171.05h-.037v-.033c.239-.018.47-.092.675-.217.633-.486 1.125-.843 1.44-1.04 1.012-.737 1.482-1.443 1.426-2.124zm-.172.045l.023.264c-.031.065-.065.099-.096.102l-.04-.45c.074.025.11.053.113.084zM2.174 14.729H2.13v-.081l.174-.023v.042a.349.349 0 00-.132.054zm-.883 8.834a.562.562 0 00-.281-.059v-.13c0-.05.022-.084.087-.095.065-.011.093.037.096.121a1.91 1.91 0 01.25-.281l.095.04c-.03.26-.112.396-.241.404zm9.436-9.872c-.045 0-.135-.135-.262-.408v-.081c.085 0 .172.13.262.408v.081zm-.124-.979l-.036.088-1.286-.535c.855.028 1.295.177 1.32.447zM5.192 17.36l-.18.017v-.082l.18-.017v.082zm-.146-2.79h.045v.13c-.043 0-.096.064-.166.185v-.09c.081-.096.123-.172.118-.222zm-.383.9l.017.171h-.045l-.017-.171zm-.2.32h.088c0 .141-.048.217-.118.223h-.045a.41.41 0 00.075-.217zm-.149.445h.051v.042l-.082.135h-.087v-.042a.112.112 0 00.118-.138zm-.146.402l-.025.214h-.045l-.02-.211h.09zm-1.47 4.177c-.06.28-.122.441-.186.447v-.043a.47.47 0 01.185-.404zm-.282.585v.042a.076.076 0 01-.079.095v-.042c0-.05.026-.082.079-.095zm-.079 1.212h.135v.048a.352.352 0 00-.135.053H2.25c0-.045.022-.079.079-.096zm3.879-1.198a7.11 7.11 0 00-1.35.767c-.82.287-1.223.466-1.21.538-.5.18-.987.39-1.462.627a.523.523 0 01-.24-.062.385.385 0 01.2-.366.773.773 0 01.369.056 3.63 3.63 0 01.711-.233v-.09l-.28.023c.246-.154.51-.277.787-.369h.135v.042c-.234.02-.363.09-.391.211 0 .056.036.079.095.073.175-.11.262-.174.26-.194.333-.063 1.253-.544 2.758-1.443v.082c0 .04-.126.15-.385.338zm-2.312.759a.892.892 0 00.562-.262c.062 0 .096.02.099.073-.22.059-.428.154-.616.282h-.045v-.087zm3.743-2.866l-1.156.917a11.86 11.86 0 01-1.386.844c-1.37.75-2.22 1.14-2.551 1.172h-.05c.04-.153.65-1.401 1.827-3.743a9.97 9.97 0 002.45-.726l.281-.022c.448-.08.909.038 1.263.323l.017.172c-.21.602-.44.954-.69 1.057zm-2.25-1.271l.186-.017v.042l-.186.017v-.042zm2.613-.442h.135c.127.06.191.113.197.16v.043a.382.382 0 01-.335-.189zm.368-2.104c-.3.283-.632.53-.99.737-.177.017-.843.282-1.988.777a.363.363 0 00-.183-.031v-.082a1.07 1.07 0 01.222-.624c.09-.473.186-.743.282-.807l.956-2.152c-.011-.133.193-.235.613-.307h.135v.124c.41-.062.67-.098.768-.107.76-.064 1.156.09 1.187.459h.087l-.02-.217.116-.04a.596.596 0 01.36.448.697.697 0 01-.195.447c-.056 0-.092-.036-.095-.12h-.096l-.02.26c-.384.576-.665.873-.843.89-.158.216-.253.326-.281.326zm.588 1.508a.337.337 0 00-.188-.073v-.13h.087l.191.113a.076.076 0 01-.078.096zm.597.723c.084.033.135.07.143.104h-.068l-.061.05-.015-.154zm.059.363v-.034l.11-.026v.034l-.11.026zm.264.295c.112-.02.169-.025.377-.073v.033l-.4.093v-.053zm.388.166a1.704 1.704 0 00-.4.056v-.034l.333-.107.16-.036.017.062c-.07.017-.02.017-.101.059zm.354-.085a.073.073 0 01-.09-.053l.102-.022a.062.062 0 01.084.053l-.096.022zm.96-1.032v-.034l.165-.039.017.062h-.174zm1.023 6.283a.259.259 0 000-.104h.037a.06.06 0 01.081.048v.034l-.135.03zm.72-6.016h-.073c-.097.04-.196.074-.298.099l-.068.017a.067.067 0 01-.087-.048l.481-.11.158-.073.053.06a.349.349 0 00-.163.067zm.369-.118v-.033a.2.2 0 00.09-.06l.34-.078v.033a2.635 2.635 0 00-.43.136zm.053-.7a.281.281 0 00-.095.06c0-.023-.054-.023-.141 0-.017-.066.236-.158.756-.282l.074-.017.016.062c-.365.107-.562.169-.61.174zm.917-.99c-.045.427-.183.66-.444.709v-.034l-.231.09-.101.022a.259.259 0 01-.14 0l-.032-.078c.305-.48.64-.942 1.001-1.381h.08a1.43 1.43 0 01-.136.672zm1.623-1.39h-.031v-.064h.135v.034a.442.442 0 00-.101.042zm-.67 6.722a.422.422 0 00-.21-.047v-.099c0-.033.02-.057.061-.07.045 0 .07.025.076.096a1.15 1.15 0 01.189-.217l.07.028c-.025.2-.087.304-.18.312zm7.158-7.495c-.033 0-.098-.101-.202-.315v-.065c.064 0 .135.096.202.307v.073zm-.095-.748l-.031.068-.97-.405c.646.02.98.135 1 .337zm-4.104 3.527h-.135v-.065h.135v.062zm-.112-2.12h.036v.098c-.033 0-.076.047-.126.14v-.064a.304.304 0 00.087-.175zm-.282.68v.13h-.036v-.13zm-.154.245h.067c0 .11-.029.168-.087.174h-.036a.354.354 0 00.056-.172zm-.11.334h.031v.034l-.06.104h-.067v-.028c.07 0 .102-.042.096-.107zm-.11.304l-.022.169h-.031v-.166h.067zm-1.125 3.178c-.045.22-.092.332-.14.338v-.028a.374.374 0 01.143-.31zm-.208.442v.028a.06.06 0 01-.062.076v-.034c0-.034.021-.057.062-.07zm-.059.922h.104v.034a.3.3 0 00-.101.04h-.067c0-.038.02-.062.061-.07zm2.942-.908c-.36.16-.704.353-1.026.58-.63.219-.94.356-.937.41a9.94 9.94 0 00-1.088.49.408.408 0 01-.18-.051.281.281 0 01.151-.282.59.59 0 01.282.042c.175-.074.356-.133.542-.174v-.065l-.213.017a2.77 2.77 0 01.602-.28h.104v.027c-.178.017-.282.068-.298.163a.06.06 0 00.073.06c.132-.088.194-.136.194-.153.25-.045.948-.41 2.092-1.096v.064c0 .028-.095.113-.281.256zm-1.755.562a.703.703 0 00.436-.197.06.06 0 01.073.06c-.165.042-.322.11-.467.2h-.036v-.063zm2.838-2.16l-.872.703a8.477 8.477 0 01-1.06.647c-1.037.563-1.683.86-1.938.89h-.037c.032-.12.496-1.066 1.393-2.842a7.667 7.667 0 001.859-.562l.21-.02c.34-.06.69.031.957.25v.13c-.16.45-.332.714-.52.796zm-1.713-.964h.135v.033h-.135v-.033zm1.983-.338h.104c.096.048.146.09.149.124v.028a.281.281 0 01-.256-.143zm.281-1.595a4.01 4.01 0 01-.748.563c-.518.154-1.023.35-1.51.585a.343.343 0 00-.138-.02v-.064a.824.824 0 01.166-.476c.067-.363.143-.562.222-.61l.731-1.634c0-.096.146-.175.461-.236h.105v.098c.309-.05.503-.08.582-.087.562-.05.877.065.903.349h.067v-.158h.068a.436.436 0 01.28.332.543.543 0 01-.168.337c-.045 0-.07-.025-.076-.095h-.067l-.02.197c-.281.441-.504.672-.636.68-.118.16-.19.242-.225.245zm.307 1.092v-.099h.067l.146.09a.062.062 0 01-.061.07.281.281 0 00-.144-.056zM9.1 22.537l-.067.016-.06.051a.06.06 0 00.082.048c.045 0 .062-.037.054-.079v-.034zm-.258-.518v.034c.045 0 .061-.037.053-.079v-.034a.062.062 0 00-.054.08zm1.845-4.387l.078-.02-.017-.068-.078.02.017.068zm23.78 1.996c-.347.097-.704.15-1.064.16v.065h.114l.087-.033c.787-.087.88-.057.872-.144v-.03zm-4.29.563v.065-.065zm-.492-1.727l-.07-.022c-.04.09-.068.184-.085.28v.029c.057 0 .104-.096.152-.281zm4.944 1.145v.064l.116.02v-.065l-.116-.02zm-5.425.67l-.177-.02-.031.067v.034l1.06-.09v-.065l-.844.073zm-.48-2.324v-.034h-.037l-.065.042.036.062c.051 0 .074-.028.068-.073zm6.406 1.17h.05c.029 0 .043-.025.04-.068l-.028-.061a.844.844 0 00-.41.104v-.031l-.217.02c0-.065-.023-.099-.054-.096H34.4c-.133 0-.194 0-.26.056 0-.022 0-.034-.022-.034h-.126l-.073.042c0-.022 0-.033-.023-.033l-.045.04v-.035h-.216v.065l.09.023h.084a.152.152 0 00.096.02l.073-.037v.025c-.228.06-.459.103-.692.132a.118.118 0 00-.07-.028.056.056 0 01-.054-.059l.146-.02c.033.01.066.019.099.026.118-.06.124-.082.186-.088v-.064a4.264 4.264 0 01-.749.07h-.022v-.065c.65-.078.433-.033.655-.095 0 .022 0 .033.023.033a.152.152 0 01.09-.045h.045c.255.008.51-.025.753-.098v.028l.074-.036h.067c0-.065.096-.076.13-.08v-.07c-.79.16-.999.116-1.218.178v-.028a.96.96 0 01-.282.022.138.138 0 00-.064.042c0-.022 0-.033-.026-.033l-.672.11c0-.02 0-.029-.025-.026a3.423 3.423 0 01-.72.13.22.22 0 00-.087.036c0-.02 0-.028-.037-.025l-.281.022-.191.048c0-.02 0-.028-.037-.025a1.527 1.527 0 01-.281.053c-.048 0 .022 0 0-.028l-.06.034h-.325c-.507.062-.45.07-.507.073h-.188a.025.025 0 01-.028.03c-.214-.027-.327-.061-.327-.1.029-.205.078-.31.15-.316h.036l-.03.068h.036c.067-.037.098-.07.095-.101v-.07h-.067v-.065a.236.236 0 01.02-.133l.154-.25v.065h.073v-.065l-.042-.059a.281.281 0 01.132-.076v-.034h-.098v-.098c.127-.227.221-.47.281-.723l.07.028c.045 0 .065-.028.062-.076h-.067v-.028a.25.25 0 01.025-.138.439.439 0 00.146-.343c.02 0 .031 0 .034.031.093-.053.163-.191.214-.422.254-.567.467-1.152.638-1.749.563-1.552.563-1.716.633-2.084h-.067a.236.236 0 01-.026.135.281.281 0 00-.11-.025v-.028a.796.796 0 01.172-.481h.014l.06.225h.067c.011-.095.029-.19.053-.282 0-.033-.028-.056-.081-.059l-.065.042v-.365h-.034a.256.256 0 01-.09-.144l-.374.037a.346.346 0 00-.042-.115c0-.034.082-.068.253-.102l.076.029.07-.043c0 .023.017.034.043.031l.07-.042c0 .023.017.034.042.031h.034v-.076h-.41l-.071.048v-.05c-1.759.144-2.757.227-2.995.25h-.372c0 .028-.022.045-.076.05l-.076-.034-.255.065a1.71 1.71 0 01-.304 0 .262.262 0 01-.144.056l.751-.047a.343.343 0 01-.183.059.253.253 0 01-.149-.026 4.168 4.168 0 01-.562.132l-.076-.028-1.226.189a.307.307 0 00-.166-.026c-.11.015-.22.039-.326.07l-.594.248.045.073a.326.326 0 00.121-.047l.21.02-.024.196a.529.529 0 00-.338.377c-.281.13-.436.22-.436.281v.034h.045l.079-.042.093.11v.151c0 .047-.489 1.079-1.466 3.094-.843 1.94-1.293 3.001-1.335 3.192-.282.082-.459.2-.51.358 0 .05.093.084.26.095v.076l-.077.127v.152c0 .078.212.138.636.18 0-.026 0-.043.04-.045a2.29 2.29 0 01-.08.562h.046a.976.976 0 00.28-.54h.037c.043 0 .088.045.138.146-.052.02-.24.438-.562 1.252l.045.073h.062c.384-.975.626-1.514.725-1.617.506-.045 1.381-.139 2.624-.281l.079-.048a.037.037 0 00.048.036h.081l.08-.047a.037.037 0 00.047.036l.942-.081c.25-.02.366-.096.357-.225 0-.034.144-.074.442-.116a.36.36 0 01.13.023c0-.023.145-.048.444-.073 0-.158.059-.242.146-.25v-.077c-.096.011-.19.033-.281.065a1.763 1.763 0 01-.374-.045.346.346 0 01-.121.048l-.656.02-.078.042c0-.025-.016-.035-.048-.031h-.037l-.084.042c0-.023-.07-.042-.208-.06l-.085.052h-.163v-.043c.844-.092 1.26-.206 1.249-.343a.073.073 0 01.09.076l.247-.062v-.076l-2.019.057c0 .025 0 .042-.04.045l-.247-.02a.298.298 0 00-.157.056l-.093-.034c-.19.012-.379.043-.563.093a3.58 3.58 0 00-.562 0l-.453.04-.21-.023c0-.135.25-.79.784-1.969.079-.28.228-.535.433-.742a.31.31 0 01.13.03l.323-.109.166.025c.332-.036.658-.116.97-.239a.453.453 0 01.21.02l.248-.06.734-.06a4.866 4.866 0 001.019-.21v-.075c-.135 0-.209 0-.211-.065 0-.1-.107-.143-.298-.13v-.075l.202-.06.529-.044v-.076h-.326v-.082l.205-.02c.056 0 .079-.03.073-.084-.281 0-.413 0-.416-.042-1.918.094-2.88.112-2.886.054a.33.33 0 00-.12.053l-.051-.079c.508-1.08.806-1.623.894-1.63a.453.453 0 01-.065.202v.033h.082c.202-.48.371-.73.514-.742.602-.054-.084-.093 1.207-.281.035.019.075.03.115.03a30.886 30.886 0 012.115-.32v-.076l-.48.045v-.076a.262.262 0 00.143-.056v.042a.281.281 0 00.11-.053.343.343 0 01.19.022 2.79 2.79 0 01.403-.082l.3-.028c.074-.047.108-.09.105-.13v-.033a.95.95 0 01-.264-.017.076.076 0 01.067-.084l.563-.053.256-.065c0 .028.016.04.036.04a.281.281 0 00.11-.054h.042a2.079 2.079 0 00-.113.306h-.073a.32.32 0 00-.042-.135h-.036c-.681 1.899-.985 2.782-1.615 4.239-.115.371-.21.58-.295.624a.06.06 0 00.073.06.899.899 0 01-.13.542c-.28.844-.483 1.297-.584 1.38l.064.398a.062.062 0 01-.062.07h-.067c0-.11-.05-.163-.121-.155h-.037a1.558 1.558 0 00-.202.484h.067c.08-.04.13-.122.127-.211h.135l.079.028a.422.422 0 00-.087.24l.036.061-.09.21v.035a.425.425 0 01.256.073.458.458 0 00.208-.085h.878l.253-.087c.181.001.362-.006.543-.022h.11l.058-.04v.034c.178-.026.358-.024.535.006v.034h-.155v.064a.222.222 0 00.124-.048c.04 0 .062.02.065.065a.923.923 0 00-.211.048l-.068-.023c-.107.029-.084.037-.157.043l-.107-.02a.025.025 0 01-.026.03.056.056 0 00.065.06h.11l.562-.05.217-.049c0 .02 0 .029.028.026l.104-.04.197-.016c.152 0 .149-.023.478-.076 0-.02 0-.029.02-.031v.028c.222-.027.442-.07.658-.127v.017c.135-.03.059-.022.095-.05 0 .022 0 .033.023.033h.096v-.07H33.1a1.01 1.01 0 01-.213.017l-.481.025v-.034l.28-.036h.096l.057-.04v.034c.377-.03.512.062 2.25-.31.095 0 .087-.086.146-.25a.163.163 0 01-.093-.02c-.163.04-.33.065-.498.074-.022 0-.042-.02-.05-.06v-.027h.281c.1-.01.196-.044.281-.096 0 .023-.053.037-.02.034zm-12.912.217h-.124c.041-.196.107-.385.197-.563h.081a2.143 2.143 0 01-.154.563zm.149-.597v-.033c0-.043.022-.07.081-.085v.034c0 .05-.022.079-.081.084zm1.637 1.266v.034l-.206.02v-.034l.206-.02zm-.248-.02c0 .042-.059.09-.197.135l-.25-.02h-.082v-.075l.538-.051zm1.668-7.616h-.112v-.042c0-.042.02-.07.073-.085h.045l.084.034a.073.073 0 01-.076.085zm1.873-.366h.04v.076h-.113a.076.076 0 01.068-.084zm-.472.166l-.186-.02v-.061c.161-.011.321-.041.475-.09 0 .028.028.04.076.034v.075h-.073a.253.253 0 01-.149-.025.32.32 0 01-.143.054zm.233.678v-.034l.301-.028v.034l-.3.028zm.324-.261v-.043h.146v.043h-.146zm.033-.515h-.04l.035-.082.334-.03v.042a2.02 2.02 0 00-.332.067zm.172.723v-.076h.146c.05 0 .077.023.079.07l-.22.02zm.889-1.21l-.189.054h-.034a1.93 1.93 0 01-.34 0c.245-.017.478-.034.563-.048zm-.203.844v.034l-.259.022v-.033l.26-.023zm.425.203c0-.031-.054-.054-.155-.062l-.259.073h-.2c-.044-.031-.067-.054-.07-.068h.23l.518-.084h.265v.042c-.113.01-.224.033-.332.068zm2.669-.69h.059c.09-.089.196-.16.312-.21-.058.342-.21.66-.441.92l-.147-.09a4.8 4.8 0 00.217-.625zm-.45.774h.036c-.05.096-.095.143-.132.146v-.098a.225.225 0 00.101-.045zm-.281.695a.984.984 0 01.202-.484v.006c-.037.261-.096.402-.172.41v.166a.371.371 0 00-.09.211h-.036l-.02-.228c.042 0 .076-.042.099-.11zm-.113.376a.956.956 0 01-.076.282h-.036v-.099c.05-.115.092-.174.12-.174zm-2.118 6.12v-.028h.068v.099c-.037 0-.062-.02-.073-.065zm3.02.08c0-.023 0-.035-.036-.032l-.171.009v-.028l.402-.034v.034a.354.354 0 00-.211.05zm-.202-.085c.017 0 0 .017 0 .02 0 .002-.02 0 0-.02zm.02-.473l-.225.02v-.048h.2l.177-.045c0 .02 0 .028.037.026.21-.037.19-.048.28-.057.035 0 .057.02.06.06l-.543.047zm.788-.067a.897.897 0 00-.223-.017v-.028l.203-.02v.028c-.02 0 .056 0 .02.034zm.016-.037v-.028h.11v.028h-.11zm.245-.02v-.028a.191.191 0 00.079-.042.079.079 0 01.09.073zm.312-.039v-.034h.135v.034h-.135zm.186-.017c0-.039 0-.062.048-.067l.045.059a.025.025 0 01.02-.031l.033.062-.146-.02zm-1.969.844v-.065h-.02v.065zm4.604-1.192c.02 0 .031-.026-.02-.034-.05-.009.026.034-.025.036v.023l.028-.02-.028.023-.056.07.11-.04V18.9zm.192.149h-.02v.064h.155c0-.042-.105-.056-.138-.056zm-.24-.116z"/><path fill="#F9DC3E" d="M25.313 14.1v.041h.087a.33.33 0 01.025-.12v-.077c-.037 0-.073.06-.107.163zm-.844-2.006v-.076h-.124v.076h.124zm-2.397 4.5a3.957 3.957 0 00-.66-.844c0-.09.14-.222.447-.4l.877-.725a2.19 2.19 0 00.346-1.212v-.13c-.034-.388-.315-.7-.844-.939-.315-.212-.877-.329-1.687-.352-.911.12-1.802.364-2.647.726-.328.234-.669.449-1.02.644v.065a.245.245 0 00.1-.045.06.06 0 01.074.059l.065-.034h.03v.028c-.211.217-.45.406-.708.563l.036.067h-.03l-.08-.028c0 .023-.03.04-.095.045v.028l.076.096a.281.281 0 01-.11-.025.529.529 0 00-.326.177l.045-.194c.144-.603.253-1.213.326-1.828v-.034a1.33 1.33 0 01-.318-.295 1.043 1.043 0 000-.138v-.028h-.03c-.347.519-1.014 1.405-2 2.657-.75.891-1.138 1.386-1.165 1.485-.306.318-.452.51-.438.563-.082.053-.116.104-.102.163a.034.034 0 01-.045-.025.892.892 0 01-.585.408l-.28.061a.065.065 0 00-.054.08v.033l.1-.023v.029l-.23.09-.407.095h-.214c-.031.031.171 0 .093.017l-.282.062c-.163.036-.25.022-.28-.042h-.032a.152.152 0 010 .067l-.017-.064-.213.05c-.015-.1-.305-.461-.87-1.085 0-.121.189-.296.597-.524l1.172-.992c.257-.33.41-.86.459-1.59l-.017-.171c-.045-.515-.416-.928-1.125-1.249-.413-.281-1.159-.43-2.233-.453a13.45 13.45 0 00-3.476.948c-.431.308-.88.59-1.345.844v.09a.352.352 0 00.135-.053.076.076 0 01.096.073l.09-.05h.045v.041a5.25 5.25 0 01-.94.732l.051.078h-.04l-.095-.033c0 .025-.042.045-.135.053v.048l.104.115a.382.382 0 01-.14-.028.892.892 0 00-.6.442l.051.078c.088-.093.19-.173.301-.236v.13a.43.43 0 00-.135.053l.107.163c.203-.215.433-.404.683-.563.124.031.189.07.192.113h.095a7.312 7.312 0 012.008-1.086v.09c-.123.188-.207.282-.25.282.003.06.026.119.065.166.011.112-.29.871-.903 2.278-1.365 3.253-2.524 5.661-3.476 7.225a.31.31 0 00.056.127c.157-.026.307-.084.442-.17h.05v.09h.087l.09-.05c0 .025.031.04.093.034v.09a.796.796 0 01-.146.4 2.063 2.063 0 00-.304.674v.042h.087c.343-.371.633-.789.861-1.24.873-.233 1.72-.551 2.531-.95a2.36 2.36 0 001.333-.459v-.048l-.219.065h-.05v-.048c.315-.021.62-.118.89-.281.837-.645 1.47-1.102 1.897-1.37.877-.645 1.447-1.273 1.71-1.884l.146-.034c.07.004.14.004.21 0 0-.022 0-.036.029-.042.197-.02.101 0 .228-.017l.32-.124h.057l-.026.017a.32.32 0 00.121 0l.023.096L9.28 20.77l-.332.417-.163.545h.031l.163-.067-.053.21.017.063.045.056c-.02 0-.028.02-.023.042v.034l.068-.017c.1-.086.141-.165.126-.236.07.018.142.023.214.016v.034c-.065.017-.098.068-.104.158v.033h.037c.545-.596 1.881-2.63 2.953-4.013-.034-.15.528-.358 1.687-.624h.037c.041.187-.053.625-.282 1.313a3.538 3.538 0 00-.182.672c-.113.294-.2.597-.26.906l-.41 1.344a12.223 12.223 0 00-.607 2.169.281.281 0 01.112 0l.06-.05a.034.034 0 00.044.024l-.022-.095h.177c.053 0 .096-.079.135-.2 0-.18.028-.281.11-.298.041-.225.11-.444.202-.653a2.88 2.88 0 01.228-.73c.155-.563.281-.845.34-.861l.017.067-.112.281a14.254 14.254 0 01-.596 2.073l.059.25h.036c.488-1.048 1.189-3.123 2.104-6.226a.813.813 0 01.39-.633l-.053-.057v-.028a.357.357 0 00.22-.123c0-.023-.096-.06-.281-.104l.455-1.97a.696.696 0 01.175-.134v.098a.245.245 0 00-.102.045l.09.124c.153-.167.326-.316.515-.442.096.026.14.06.146.09h.068c.461-.35.975-.624 1.521-.815v.064c-.092.14-.154.21-.188.211a.281.281 0 00.042.127 11.95 11.95 0 01-.678 1.732 47.085 47.085 0 01-2.646 5.502.245.245 0 00.047.095.844.844 0 00.33-.129h.03v.065h.074l.064-.034c0 .019.024.026.07.022v.07a.596.596 0 01-.112.299 1.493 1.493 0 00-.239.512v.033h.067c.26-.282.48-.599.653-.942a10.56 10.56 0 001.924-.734c.367-.01.722-.131 1.018-.349v-.033l-.172.05h-.03v-.033a1.51 1.51 0 00.674-.217c.633-.487 1.125-.844 1.44-1.04 1.007-.729 1.48-1.443 1.423-2.135zm-.174.045l.023.264c-.031.065-.065.099-.096.101l-.04-.45c.074.026.11.054.113.085zm-19.842-2.12H2.01v-.082l.18-.017v.042a.349.349 0 00-.132.053zm-.883 8.825a.562.562 0 00-.281-.06v-.129c0-.05.022-.084.087-.095.064-.012.093.036.095.12.074-.101.158-.195.25-.28l.096.039c-.03.261-.112.396-.242.405zm9.436-9.872c-.045 0-.135-.135-.262-.408v-.082c.085 0 .172.13.262.408v.082zm-.127-.979l-.036.087-1.283-.534c.855.028 1.295.177 1.32.447zm-5.42 4.663l-.18.017v-.081l.18-.017v.081zm-.146-2.79h.045v.13c-.042 0-.095.064-.166.185v-.09c.082-.095.124-.171.118-.222zm-.38.897l.017.172h-.045l-.008-.177zm-.2.321h.088c0 .14-.048.217-.118.222H4.26a.41.41 0 00.076-.216zm-.14.447h.05v.042l-.08.135h-.088v-.042a.112.112 0 00.118-.138zm-.146.402l-.025.214H3.98l-.02-.21h.09zm-1.47 4.169c-.06.28-.122.441-.187.447v-.042a.47.47 0 01.189-.405zm-.282.585v.042a.076.076 0 01-.079.095v-.042c0-.05.026-.082.079-.095zm-.079 1.212h.135v.048a.352.352 0 00-.135.053h-.087c0-.045.022-.079.079-.096zM6.098 21.2a7.189 7.189 0 00-1.35.767c-.82.29-1.226.466-1.218.532a13.5 13.5 0 00-1.454.647.523.523 0 01-.24-.062.385.385 0 01.2-.366.773.773 0 01.369.062 3.63 3.63 0 01.711-.233v-.09l-.281.022c.247-.153.511-.277.787-.368h.135v.042c-.233.02-.362.09-.39.211 0 .056.036.079.095.073.175-.11.262-.174.259-.194.332-.064 1.251-.545 2.759-1.443v.082c0 .04-.127.149-.385.337zm-2.312.759a.892.892 0 00.562-.262c.062 0 .096.02.099.074a2.02 2.02 0 00-.616.28h-.045v-.086zm3.743-2.863l-1.156.917a11.23 11.23 0 01-1.39.843c-1.368.75-2.218 1.141-2.55 1.173h-.05c.04-.153.65-1.401 1.827-3.743a9.976 9.976 0 002.45-.726l.281-.022c.448-.08.909.038 1.263.323l.017.172c-.208.599-.439.95-.686 1.054zm-2.25-1.271l.186-.017v.042l-.186.017v-.042zm2.596-.442h.135c.127.06.191.113.197.16v.043a.382.382 0 01-.332-.203zm.368-2.104c-.3.283-.632.53-.99.737-.177.017-.843.281-1.988.776a.363.363 0 00-.183-.03v-.082a1.07 1.07 0 01.222-.624c.09-.473.186-.743.282-.808l.956-2.151c-.011-.133.193-.235.613-.307h.135v.124c.41-.062.67-.098.768-.107.76-.065 1.156.09 1.187.459h.087l-.02-.217h.096a.596.596 0 01.36.447.697.697 0 01-.194.447c-.06 0-.093-.036-.096-.12h-.095l-.02.261c-.385.576-.666.872-.844.889-.157.216-.253.326-.281.326zm.588 1.508a.337.337 0 00-.188-.073v-.13h.087l.191.113a.076.076 0 01-.078.095zm.608.72c.084.034.135.07.143.104h-.067l-.062.05-.017-.174zm.056.363v-.034l.11-.025v.033l-.11.026zm.264.295c.113-.02.17-.025.377-.073v.034l-.4.092a.235.235 0 000-.053zm.389.166a1.704 1.704 0 00-.4.056v-.034l.335-.107.16-.036.017.062c-.073.017-.02.017-.104.059zm.354-.085a.073.073 0 01-.09-.053l.101-.022a.062.062 0 01.085.053l-.096.023zm.959-1.032v-.033l.166-.04.017.062h-.175zm1.024 6.283a.259.259 0 000-.104h.036a.06.06 0 01.082.048v.034l-.135.03zm.734-6.016h-.073c-.097.04-.197.074-.298.099l-.068.017a.067.067 0 01-.087-.048l.472-.112.158-.074.053.06a.352.352 0 00-.163.067zm.368-.118v-.033a.2.2 0 00.09-.06l.34-.078v.034a2.632 2.632 0 00-.43.135zm.054-.689a.281.281 0 00-.096.06c0-.023-.053-.023-.14 0-.017-.065.236-.158.756-.282l.073-.017.017.062c-.366.107-.563.169-.61.174zm.917-.99c-.037.417-.183.653-.442.712v-.034l-.23.09-.102.023a.256.256 0 01-.14 0l-.02-.093c.305-.48.64-.942 1.001-1.381h.079a1.43 1.43 0 01-.135.672zm1.622-1.39h-.03v-.064h.134v.034a.442.442 0 00-.1.042zm-.675 6.712a.42.42 0 00-.21-.048v-.099c0-.033.02-.057.061-.07.045 0 .07.025.076.096a1.15 1.15 0 01.189-.217l.07.028c-.025.2-.087.304-.18.312zM22.67 13.5c-.034 0-.099-.101-.203-.315v-.065c.065 0 .135.096.203.307v.073zm-.096-.748l-.03.067-.971-.405c.647.02.981.135 1.001.338zm-4.109 3.54h-.135v-.064h.135v.065zm-.112-2.12h.036v.099c-.034 0-.076.047-.126.14v-.064a.304.304 0 00.087-.175zm-.282.68v.13h-.036v-.13zm-.154.245h.067c0 .111-.029.168-.087.172h-.037a.354.354 0 00.057-.171zm-.11.335h.03v.037l-.058.104h-.068v-.034c.07 0 .102-.042.096-.107zm-.115.318l-.023.169h-.034v-.166h.068zm-1.125 3.178c-.045.22-.092.332-.141.338v-.029a.374.374 0 01.143-.309zm-.209.442v.028a.06.06 0 01-.061.076v-.034c0-.034.02-.057.062-.07zm-.045.91h.105v.035a.3.3 0 00-.102.04h-.067c0-.038.02-.062.062-.071zm2.942-.908c-.36.16-.703.354-1.026.58-.63.22-.94.357-.937.41-.375.14-.741.301-1.097.484a.408.408 0 01-.18-.05.281.281 0 01.152-.282.59.59 0 01.282.043c.175-.075.356-.134.542-.175v-.065l-.21.02c.188-.117.39-.211.601-.281h.104v.028c-.177.017-.28.068-.298.163a.06.06 0 00.073.06c.133-.088.194-.136.194-.153.252-.045.95-.41 2.093-1.097v.065c0 .025-.096.11-.281.253zm-1.755.563a.703.703 0 00.436-.197c.045 0 .07.017.073.06a1.627 1.627 0 00-.466.199h-.037v-.062zm2.835-2.177l-.872.703c-.338.248-.694.47-1.065.664-1.037.562-1.683.859-1.938.889h-.037c.032-.118.496-1.065 1.392-2.84a7.667 7.667 0 001.86-.563l.21-.017c.34-.06.69.03.957.25v.13c-.15.463-.31.717-.512.795zm-1.712-.965h.135v.034h-.135v-.034zm1.982-.337h.104c.096.048.147.09.15.124v.028a.281.281 0 01-.256-.144zm.282-1.595a4.01 4.01 0 01-.749.563c-.521.16-1.03.364-1.518.607a.346.346 0 00-.138-.02v-.064a.821.821 0 01.157-.478c.068-.363.144-.563.223-.61l.734-1.64c0-.096.146-.175.46-.236h.105v.098c.31-.05.503-.08.582-.087.563-.05.878.064.903.349h.067v-.158h.068a.436.436 0 01.281.332.543.543 0 01-.138.343c-.045 0-.07-.025-.075-.096h-.068l-.02.197c-.315.428-.526.664-.666.664-.118.16-.191.242-.225.245zm.306 1.091v-.098h.068l.146.09a.062.062 0 01-.062.07.281.281 0 00-.143-.056zm-12.21 6.376l-.067.017-.06.05a.06.06 0 00.082.049c.045 0 .062-.037.054-.079v-.034zm-.264-.517v.034c.045 0 .062-.037.053-.08v-.033a.062.062 0 00-.053.079zm1.856-3.485l.05-.03H10.6a.03.03 0 00-.022.036zm0-.903l.079-.02-.017-.067-.079.02.017.067zm18.52 2.647l-.177-.02-.03.068v.034l1.06-.09v-.065l-.844.073zm.97-.082v.065-.065zm4.444-.582v.065l.116.02v-.065l-.116-.02zm-.163 0c-.346.097-.703.15-1.063.16v.065h.113l.087-.033c.787-.088.88-.057.872-.144v-.048zm-4.781-1.159l-.07-.022a1.2 1.2 0 00-.085.281v.028c.057 0 .104-.095.152-.28zm-.96-.517v-.011h-.036l-.064.042.036.062c.05 0 .073-.028.068-.073zm2.085 2.154v-.064h-.034v.064zm4.323-.976h.05c.029 0 .043-.025.04-.067l-.028-.062a.844.844 0 00-.41.104v-.034l-.218.02c0-.065-.022-.098-.053-.096h-.112c-.133 0-.195 0-.26.057 0-.023 0-.034-.022-.034h-.126l-.073.042c0-.022 0-.034-.023-.034l-.045.04h-.216v.064l.09.023h.084a.152.152 0 00.096.02l.073-.037v.028c-.228.06-.459.104-.692.132a.12.12 0 00-.07-.028.056.056 0 01-.054-.059l.146-.02c.033.01.065.02.099.026.118-.06.123-.082.185-.087v-.065a4.272 4.272 0 01-.748.07h-.022v-.064c.65-.08.433-.034.655-.096 0 .022 0 .034.023.034a.152.152 0 01.09-.045h.045a2.4 2.4 0 00.753-.099v.028l.073-.036h.068c0-.065.096-.076.13-.079v-.07c-.791.16-1 .115-1.218.177v-.028a.96.96 0 01-.282.022.138.138 0 00-.064.043c0-.023 0-.034-.026-.034l-.672.11c0-.02 0-.029-.025-.026a3.423 3.423 0 01-.72.13.22.22 0 00-.087.036c0-.02 0-.028-.037-.025l-.281.022-.191.048c0-.02 0-.028-.037-.025a1.522 1.522 0 01-.281.053c-.048 0 .022 0 0-.028l-.06.034h-.326c-.506.062-.45.07-.506.073h-.188a.025.025 0 01-.028.03c-.214-.027-.327-.061-.327-.1.028-.205.078-.31.15-.315h.036l-.031.067h.037c.067-.036.098-.07.095-.101v-.07h-.067v-.065a.236.236 0 01.02-.132l.154-.25v.064h.073v-.065l-.042-.059a.281.281 0 01.132-.076v-.033h-.098v-.099a2.84 2.84 0 00.281-.723l.07.028c.045 0 .065-.028.062-.075h-.067v-.029a.25.25 0 01.025-.137.439.439 0 00.146-.344c.02 0 .031 0 .034.031.093-.053.163-.19.214-.421a13.21 13.21 0 00.694-1.758c.577-1.553.563-1.716.633-2.084h-.067a.236.236 0 01-.026.135.281.281 0 00-.11-.026v-.028a.796.796 0 01.172-.48h.031l.06.224h.067c.011-.095.029-.189.053-.28 0-.035-.028-.057-.081-.06l-.065.042v-.365h-.034a.256.256 0 01-.09-.144l-.374.037a.343.343 0 00-.042-.116c0-.033.082-.067.253-.1l.076.027.07-.042c0 .023.017.034.043.031l.07-.042c0 .022.017.034.042.03h.034v-.075h-.41l-.071.048v-.043c-1.759.145-2.757.228-2.995.25h-.372c0 .029-.022.046-.076.051l-.076-.033-.255.064a1.704 1.704 0 01-.304 0 .262.262 0 01-.144.057l.751-.048a.343.343 0 01-.183.059.253.253 0 01-.149-.025 4.26 4.26 0 01-.562.132l-.076-.028-1.226.188a.307.307 0 00-.166-.025c-.11.014-.22.038-.326.07l-.594.248.045.073a.33.33 0 00.121-.048l.21.02-.024.196a.529.529 0 00-.4.332c-.281.13-.436.22-.436.282v.033h.045l.08-.042.092.11v.152c0 .047-.489 1.078-1.465 3.093-.844 1.941-1.294 3.001-1.336 3.193-.282.081-.459.2-.51.357 0 .05.093.084.26.095v.076l-.077.127v.152c0 .079.212.139.636.18 0-.026 0-.042.04-.045a2.27 2.27 0 01-.08.562h.046a.976.976 0 00.247-.486h.037c.042 0 .087.045.138.146-.053.02-.24.438-.563 1.252l.045.073h.045c.384-.975.626-1.514.726-1.618.506-.045 1.38-.138 2.624-.28l.078-.049a.037.037 0 00.048.037h.082l.079-.048a.037.037 0 00.047.037l.974-.113c.25-.02.365-.095.357-.225 0-.034.143-.073.441-.115a.36.36 0 01.13.022c0-.022.146-.047.444-.073 0-.157.056-.242.146-.25v-.076c-.096.011-.19.033-.281.065a1.76 1.76 0 01-.374-.045.346.346 0 01-.121.048l-.655.02-.08.041c0-.024-.015-.034-.047-.03h-.036l-.085.042c0-.023-.07-.043-.208-.06l-.084.051h-.163v-.025c.843-.092 1.26-.206 1.248-.343a.073.073 0 01.09.076l.248-.062v-.076l-2.02.056c0 .025 0 .042-.039.045l-.247-.02a.298.298 0 00-.158.057l-.093-.034c-.19.012-.378.043-.562.093a3.58 3.58 0 00-.563 0l-.453.04-.239-.029c0-.135.25-.79.785-1.969.08-.28.228-.535.433-.742.045 0 .09.01.13.03l.323-.109.166.025c.333-.036.659-.117.97-.239a.456.456 0 01.211.02l.248-.06.725-.05a4.866 4.866 0 001.018-.208v-.076c-.135 0-.208 0-.21-.064 0-.102-.107-.144-.299-.13v-.076l.203-.059.529-.045v-.076h-.327v-.081l.206-.02c.056 0 .078-.031.073-.084-.281 0-.414 0-.416-.043-1.919.094-2.88.112-2.886.054a.33.33 0 00-.121.053l-.05-.078c.508-1.08.806-1.624.894-1.632a.475.475 0 01-.062.203v.034h.081c.203-.481.372-.732.515-.743.602-.053-.084-.093 1.207-.281a.25.25 0 00.115.03c.506-.102 1.211-.21 2.115-.32v-.076l-.48.045v-.076a.262.262 0 00.143-.056v.042a.281.281 0 00.11-.053.346.346 0 01.19.022 2.79 2.79 0 01.405-.081l.301-.028c.074-.048.107-.09.104-.13v-.034a.95.95 0 01-.264-.016.076.076 0 01.068-.085l.562-.053.256-.065c0 .028.017.04.037.04a.281.281 0 00.11-.054h.041a2.086 2.086 0 00-.112.307h-.073a.32.32 0 00-.042-.135h-.037c-.68 1.898-.984 2.781-1.614 4.238-.116.371-.211.58-.296.624a.06.06 0 00.074.06.911.911 0 01-.13.542c-.281.844-.484 1.297-.585 1.381l.028.377a.062.062 0 01-.062.07h-.067c0-.11-.05-.163-.121-.154h-.037a1.558 1.558 0 00-.202.483h.067c.08-.04.13-.122.127-.21h.135l.079.028a.42.42 0 00-.087.239l.036.062-.09.21v.034a.432.432 0 01.256.073.458.458 0 00.208-.084h.878l.253-.087a5.97 5.97 0 00.627-.02h.11l.059-.04v.034c.172-.02.347-.013.517.02v.034h-.155v.065a.222.222 0 00.124-.048c.04 0 .062.02.065.064a.923.923 0 00-.211.048l-.068-.022c-.106.028-.084.036-.157.042l-.107-.02a.025.025 0 01-.025.031.056.056 0 00.064.06h.11l.563-.051.216-.048c0 .02 0 .028.028.025l.104-.04.197-.016c.152 0 .15-.023.481-.076 0-.02 0-.028.02-.031v.028a4.77 4.77 0 00.678-.14v.016c.135-.03.059-.022.095-.05 0 .022 0 .034.023.034h.096v-.07h-.237a1.01 1.01 0 01-.213.016l-.481.025v-.033l.28-.037h.096l.057-.04v.034c.377-.03.512.062 2.25-.309.095 0 .087-.087.146-.25a.163.163 0 01-.093-.02c-.163.04-.33.064-.498.073-.022 0-.042-.02-.05-.059v-.028h.28c.1-.01.197-.043.282-.096 0 .023-.056.037-.022.034zm-12.904.217h-.124c.042-.195.108-.384.197-.562h.082a2.143 2.143 0 01-.155.562zm.15-.596v-.034c0-.042.022-.07.08-.084v.033c0 .051-.022.08-.08.085zm1.647 1.271v.034l-.205.02v-.034l.205-.02zm-.247-.02c0 .042-.06.09-.197.135l-.25-.02h-.082v-.075l.537-.05zm1.653-7.624h-.123v-.043c0-.042.02-.07.073-.084h.045l.084.034a.073.073 0 01-.076.084zm1.874-.366h.039v.076h-.113a.076.076 0 01.068-.084zm-.467.163l-.186-.02v-.036a2.01 2.01 0 00.467-.085c0 .029.028.04.076.034v.076h-.073a.253.253 0 01-.15-.025.32.32 0 01-.143.053zm.233.678v-.034l.301-.028v.034l-.3.028zm.312-.256v-.042h.147v.042h-.147zm.034-.515h-.04l.034-.081.335-.031v.042a2.025 2.025 0 00-.332.067zm.172.723v-.076h.146c.05 0 .077.024.079.07l-.22.02zm.888-1.21l-.188.054h-.045a1.93 1.93 0 01-.34 0c.244-.017.478-.034.562-.048zm-.202.844v.034l-.259.023v-.034l.259-.023zm.425.203c0-.03-.054-.053-.155-.062l-.259.073h-.2c-.045-.03-.067-.053-.07-.067h.23l.518-.085h.265v.043c-.113.01-.224.032-.332.067zm2.669-.69h.059c.09-.088.195-.16.312-.21-.058.342-.21.66-.442.92l-.146-.09c.087-.203.159-.412.217-.625zm-.45.774h.036c-.05.096-.095.144-.132.147v-.099a.222.222 0 00.101-.045zm-.282.695a.984.984 0 01.203-.484v.034c-.037.262-.096.402-.172.41v.167a.371.371 0 00-.09.21h-.036l-.02-.227c.042 0 .076-.042.099-.11zm-.112.377a.96.96 0 01-.076.281h-.037v-.098c.051-.116.093-.175.121-.175zm-2.115 6.137v-.028h.067v.098c-.036 0-.061-.02-.073-.065zm3.02.079c0-.023 0-.034-.036-.031l-.172.016v-.033h.017l.38-.057v.034a.354.354 0 00-.21.05zm-.202-.085c.017 0 0 .017 0 .02 0 .003-.02 0 0-.02zm.02-.472l-.225.02v-.046l.205-.02.177-.044c0 .02 0 .028.037.025.21-.037.191-.048.281-.056.034 0 .056.02.06.059l-.544.048zm.787-.068a.897.897 0 00-.222-.017v-.025l.203-.02v.02c-.02 0 .056 0 .02.034zm.017-.036v-.029h.11v.029h-.11zm.245-.02v-.028a.191.191 0 00.079-.042.079.079 0 01.09.073zm.312-.04v-.033h.135v.034h-.135zm.186-.016c0-.04 0-.062.047-.068l.045.06a.025.025 0 01.02-.032l.034.062-.146-.02zm2.579-.304zm.047-.034c.02 0 .031-.025-.02-.034-.05-.008.026.034-.025.037v.022l.029-.02-.029.023-.056.07.11-.039v-.064zm.192.15h-.02v.064h.155c0-.042-.104-.056-.138-.056z"/></svg>