<svg width="40" height="40" viewBox="0 0 48 48" xmlns="http://www.w3.org/2000/svg"><path d="M8.701 26.048v-6.12h2.51c.54 0 .933.014 1.18.042.246.027.458.073.635.137.31.116.548.297.712.544.165.246.248.545.248.897 0 .277-.062.519-.185.725a1.4 1.4 0 01-.555.509c.325.116.564.291.719.523.155.233.233.535.233.906 0 .363-.076.678-.227.945-.151.267-.37.473-.658.617-.194.1-.416.17-.665.212-.249.041-.662.062-1.238.062H8.7zm1.907-3.677h.81c.271 0 .463-.04.573-.12.11-.08.166-.216.166-.408 0-.202-.06-.34-.178-.415-.12-.075-.395-.112-.827-.112h-.544v1.055zm0 2.248h.91c.302 0 .517-.045.644-.134.127-.088.19-.233.19-.436 0-.202-.064-.346-.195-.432-.13-.086-.348-.128-.656-.128h-.893v1.13zm5.4 1.429v-6.12h4.89v1.467h-2.924v.814h2.472v1.404h-2.472v.947h3.045v1.487h-5.01zm8.566 0h-1.778v-6.12h2.393l.847 3.054c.011.041.034.136.067.284.033.148.08.353.141.613.039-.205.075-.384.108-.538a3.43 3.43 0 01.088-.347l.868-3.066h2.389v6.12h-1.778l.016-3.012a60.346 60.346 0 01.009-1.072c-.067.316-.147.66-.241 1.035l-.013.054-.756 2.995h-1.37l-.765-2.929a7.962 7.962 0 01-.108-.456 71.138 71.138 0 01-.141-.698l.019.677c.004.188.006.34.006.453v2.953zM32.736.8H2.893c-.847 0-1.536.69-1.536 1.536v33.728c0 .847.689 1.536 1.536 1.536h32.613c.847 0 1.536-.69 1.536-1.536V5.604L32.736.8zM23.04 8.128h1.695c.53 0 .96-.478.96-1.069V1.952h3.233v7.36a.384.384 0 01-.384.384H12.849V1.952h9.23v5.107c0 .59.43 1.069.96 1.069zM11.697 1.952v7.744h-1.97a.384.384 0 01-.384-.384v-7.36h2.354zm-9.188 14.92H35.89v12.246H2.51V16.872zm33.38 19.192a.385.385 0 01-.383.384H2.893a.385.385 0 01-.384-.384V30.27H35.89v5.794zM2.51 15.72V2.336c0-.212.172-.384.384-.384H8.19v7.36c0 .847.689 1.536 1.536 1.536h18.817c.847 0 1.536-.69 1.536-1.536v-7.36h2.141l3.67 4.092v9.676H2.508z"/></svg>