<svg width="32" height="32" xmlns="http://www.w3.org/2000/svg"><path fill="#303C42" d="M22.493 11.533l-.133-.08a.667.667 0 00-1.027.654.907.907 0 01-.226.746 1.547 1.547 0 01-1.107.48A1.4 1.4 0 0118.667 12a5.947 5.947 0 01.306-2.133c.27-.816.393-1.675.36-2.534 0-2.666-.32-4.106-3.546-7.146a.667.667 0 00-1.12.613c.773 3.813-1.56 5.867-4.52 8.36-.814.747-1.76 1.507-2.614 2.373-4.026 4.014-4.866 7.547-4.866 9.8 0 4 1.48 9.054 8.52 10.667h.16a.667.667 0 00.333-1.253C9.16 28.413 8.667 27.24 8.667 26a5.84 5.84 0 011.586-3.44 2.76 2.76 0 00.414 1.56 3.227 3.227 0 002.666 1.213C14.907 25.333 16 24 16 22a3.92 3.92 0 00-1.427-2.587 3.4 3.4 0 01-1.24-2.08 4 4 0 01.32-1.546 4.332 4.332 0 001.334 1.413c.333.24.826.56 1.4.92 2.213 1.333 6.32 4 6.32 6.533 0 3.307-1.214 4.32-3.72 6.12a.667.667 0 00.386 1.214h.147c4.84-1.067 9.853-5.334 9.853-10.667s-4.653-8.333-6.88-9.787z"/></svg>