<svg width="40" height="40" xmlns="http://www.w3.org/2000/svg"><path fill-rule="evenodd" d="M30.656 36.86c-3.49 0-5.746-1.664-6.846-3.84l3.06-1.772c.806 1.316 1.852 2.282 3.706 2.282 1.556 0 2.55-.778 2.55-1.852 0-1.616-2.156-2.248-3.678-2.9-2.712-1.154-4.512-2.604-4.512-5.666 0-2.818 2.148-4.966 5.506-4.966 2.388 0 4.108.832 5.342 3.006l-2.926 1.88c-.644-1.154-1.342-1.61-2.416-1.61-1.102 0-1.8.698-1.8 1.61 0 1.128.698 1.584 2.31 2.282 3.378 1.448 5.934 2.586 5.934 6.31 0 3.384-2.658 5.236-6.23 5.236zM22 31.194c0 3.894-2.398 5.952-5.728 5.952-3.008 0-4.81-1.15-5.696-3.15h-.052l3.058-2.138c.59 1.046 1.122 1.788 2.41 1.788 1.236 0 2.008-.626 2.008-2.504V17.996h4v13.198zM0 39.996h40v-40H0v40z"/></svg>