<svg width="40" height="40" xmlns="http://www.w3.org/2000/svg"><path d="M16.25 6.875H10v16.601c0 4.108-1.409 5.255-3.86 5.255a9.339 9.339 0 01-2.989-.473l-.651 4.86c1.148.395 2.91.632 4.29.632 5.628 0 9.46-2.646 9.46-10.233V6.875zm13.63-.625c-6.05 0-9.88 3.437-9.88 7.98 0 3.914 2.95 6.363 7.238 7.943 3.101 1.106 4.327 2.095 4.327 3.714 0 1.778-1.417 2.924-4.097 2.924-2.49 0-4.75-.831-6.281-1.66v-.002L20 32.088c1.456.831 4.175 1.66 7.122 1.66 7.085 0 10.378-3.793 10.378-8.257 0-3.793-2.106-6.242-6.662-7.982-3.37-1.343-4.787-2.093-4.787-3.792 0-1.344 1.226-2.568 3.753-2.568 2.488 0 4.199.837 5.196 1.351l1.494-5c-1.562-.686-3.667-1.25-6.614-1.25z"/></svg>