<svg width="32" height="32" xmlns="http://www.w3.org/2000/svg"><path fill="#010101" d="M4.332 13.989c-.934.44-3.407 2.417-3.883 3.003-.495.586-.641-.33-.128-1.85.402-1.227 1.428-2.893 3.15-4.322 1.007-.824 3.223-2.015 4.579-2.71.274-.147 3.828-1.65 6.996-2.4.275-.073-.33.458-.421.75-.476 1.393-9.982 7.364-9.982 7.364l-.311.165zM17.72 30.784c.165.989.019 1.062-1.007 1.19-1.026.129-1.777-.256-2.051-.512-.275-.257-.33-.824-.055-1.337.165-.33.33-.44.421-.843.092-.384.165-.476.238-.623.073-.128.092-.256.11-1.153.018-.898 0-2.583.092-3.297.091-.733 3.26.33 3.26.33s-.751 1.868-.953 2.325c-.201.458-.183 1.337-.183 1.52 0 .184-.073.55-.128.568-.055.019.183.495.073.77-.073.256.165.916.183 1.062zM18.93 2.78c-.11-.696 0-2.07.146-2.29.458-.623 2.875-.696 3.388.037.22.33.202 1.099.165 1.593-.037.495-.165 1.557-.183 1.905-.018.256-2.674.66-3.26-.037-.165-.183-.257-1.208-.257-1.208zm5.384 26.227c1.117.806 1.978.953 2.546 1.246.568.293.421.86-.531 1.026-.77.146-1.978-.147-2.784-.147-.806 0-2.601.092-3.077-.238-.55-.385-.312-1.099-.312-1.099.147-.403.513-1.3.403-2.033-.11-.733-.256-1.136-.531-1.813-.275-.678-.476-2.345-.22-2.436.257-.092.183 0 .513.073s.696.183 1.41.183c.715 0 1.502-.11 1.777-.165.275-.055.495-.11.403.458-.092.568-.366 1.63-.385 2.454-.018.825-.018 1.777.037 1.942.055.165.458.348.751.55z"/><path fill="#8AC640" d="M20.394 4.611c-2.014 1.74-5.915 2.216-11.703 4.45-1.484.569-5.44 2.272-6.392 4.049 3.205-1.85 4.395.696 4.652 3.315.238 2.454 1.465 3.736 4.615 3.663 3.242-.073 4.231 1.813 5.129 4.03 1.74-8.481 4.524-10.13 6.318-11.576 3.81-3.096-.879-8.554-2.619-7.93z"/><path fill="#8AC640" d="M20.394 4.611C15.56 6.296 10.78 6.717 5.156 10.18c-1.337.824-4.158 2.692-4.707 6.264 2.051-2.271 6.795-5.128 12.6-6.942 2.931-.915 5.074-1.52 7.675-2.527-.183-1.172-.183-1.63-.33-2.363z"/><path fill="#010101" d="M26.567 14.648s-.348 1.19-1.044 1.575c0 0-.513.183-1.539-.384-.293-.165-.512-.733-.494-.916.018-.44.293-.641.293-.641s.293-.495.64-.476c.349.018.935.073 1.118-.092.165-.183 1.062.33 1.026.934zm-7.473-11.52s-.073.934-.201 1.52c-.019.11-.568.165-.971.33.77 2.197 5.403 2.179 6.007 1.098a7.98 7.98 0 00-1.153-.622c-.275-.11-.257-.092-.275-.605-.019-.513-.055-1.465-.092-1.721-.036-.257-2.875-.257-3.315 0z"/><path fill="#F0EFEF" d="M19.277 3.128s0 .53-.055 1.043a4.316 4.316 0 01-.073.568c-.018.11.623.55.806 1.52.88 1.96 2.912.99 3.755.055a7.079 7.079 0 00-1.32-.696c-.274-.11-.146-.348-.164-.86a20.66 20.66 0 00-.128-1.539c-.037-.275-2.381-.348-2.82-.091z"/><path fill="#010101" d="M19.094 3.128s-.018.33-.073.714c.238.238.55.568.787.77.165.146.568.127.935.127.33 0 .622.037.75-.036.294-.147.715-.513.953-.788-.018-.33-.037-.64-.055-.787-.018-.257-2.857-.257-3.297 0z"/><path fill="#010101" d="M20.76 4.52c-.22 0-.476-.019-.677-.055-.092-.019-.183-.074-.256-.11-.129-.092-.257-.202-.403-.312-.293-.22-.312-.348-.312-.403.129-1.154-.036-2.124-.036-2.124s-.129-.495.567-.623a9 9 0 011.118-.146s.44 0 1.117.146c.696.128.568.623.568.623s-.165.97-.037 2.124c0 .055-.018.183-.311.403-.257.183-.458.385-.66.422a4.057 4.057 0 01-.677.054z"/><path fill="#010101" d="M20.76.27c-1.208 0-1.446.33-1.794.696-.073.092-.019.641.11 1.814h.165s-.11-.33-.092-.715c.018-.384.092-.366.037-.458-.074-.11-.22-.293.11-.476s.842.147 1.465.165c.622-.018 1.154-.348 1.483-.165.33.183.183.366.11.476-.073.11.019.074.037.458.018.385-.092.715-.092.715h.165c.11-1.173.183-1.685.128-1.777C22.281.6 21.97.289 20.761.27zm5.807 14.433s-.348 1.117-1.026 1.502c-.146-.073-.128-.183-.256-.348-.037-.055-.165-.092-.22-.147-.055-.055-.037-.146-.128-.22-.074-.073-.129-.018-.202-.073-.073-.073-.091-.165-.146-.22-.037-.036-.183-.054-.22-.091-.092-.092-.897-.256-.86-.44.072-.274.219-.476.219-.476s.348-.513.696-.494c.348.018.677.091.86-.074.202-.183 1.338.495 1.283 1.08z"/><path fill="#010101" d="M24.186 6.608s1.154-.275 1.941.476c.788.769.733 1.721.495 2.307.201.239.568.898.293 1.685 1.209 1.026.677 2.601-.403 3.645 0 0-.257-.952-1.282-1.007.036-.366-.953-.66-.495-1.612-.696-.165-.677-.641-.787-1.227-.092-.586.238-4.267.238-4.267z"/><path fill="#F0EFEF" d="M23.764 7.12s1.337-.677 2.125.092c.788.77.568 1.612.33 2.198.201.238.677.916.384 1.721-.055.184-.458.184-.75.66.732-.422 1.19-.312 1.355.22.256.824-.312 1.813-.806 2.362 0-.018-.019-.036-.019-.055-.073.275-.164.806-.714 1.392-.275.293-.494.257-.806.183-.366-.091-.494-.256-1.007-.53-.293-.166-.128-.367-.128-.532 0-.037.036-.092.091-.165.037-.091.147-.238.312-.403 0 0 .238-.33.586-.311.348.018.714-.055.806-.147 0-.64-.733-.659-.476-1.758.018-.055.11-.146.402-.183-.44-.092-.64-.11-.952-.403a1.352 1.352 0 01-.44-.787c-.11-.568-.293-3.554-.293-3.554z"/><path fill="#010101" d="M19.9 5.966a3.312 3.312 0 00-1.758-1.172c-.312-.091-.513.165-.825.348-.091-.055-.494-.238-.714-.11-.22.128-.366.257-.586.348-.11-.055-.403-.055-.641.037-.238.073-.604.238-.952.714-.22.788 3.882.202 3.882.202l1.594-.367z"/><path fill="#8AC640" d="M19.937 5.966c-.587-.201-.495-.879-1.795-.989-.257-.018-.422.184-.605.312.092.091.183.238.238.384-.165-.183-.458-.42-.75-.476-.275-.055-.459.147-.752.293.055.055.11.147.183.257-.256-.165-.44-.22-.787-.092a2.023 2.023 0 00-1.044.77c-.22.787 3.7-.092 3.7-.092l1.612-.367z"/><path fill="#010101" d="M23.38 6.26s0-.202-.018-.385c0-.037-.147-.128-.147-.165l-.037-.037s.294-.164.513-.073c.238.073.367.385.367.385.42-.147.457.018.659.238.44-.092.494.073.77.476 0 0-.33-.055-.972.055-.622.092-1.135-.513-1.135-.494z"/><path fill="#8AC640" d="M23.307 6.168s.11-.092.073-.11c.201-.11.476-.238.604.11.422-.147.476.055.678.275.513-.238.55.055.586.183-.165 0-.403.018-.733.055-.622.091-1.227-.531-1.208-.513z"/><path fill="#010101" d="M17.08 5.71s1.043.366 1.922.311c.88-.073 2.381-.146 3.187.33 0 0 .825-.293 1.594-.092.77.202 2.18 1.52 1.758 2.913-.036.091-.275.238-.55.33 0 0 .147.622-.11 1.135-.256.494-.823 1.447-.842 2.766-.018.22-.055.677-.091.897-1.429-.055-3.627-.586-5.788-.55.018-.238.037-.384.055-.622h.055c-.11-.605-.147-.916-.257-1.374-.696-.44-1.428-.952-2.05-1.923-.605-.97 1.116-4.121 1.116-4.121zm7.07 9.89s1.135 4.067-.202 5.77c0 0 .201.787-.257 1.63-.073.366-.165.696-.22 1.062-.238 1.52-.64 2.161-.75 4.597l-1.1-.018s-.128-1.758-.512-2.692c-.22-.531-1.081-1.246-1.044-1.96.036-.55.146-1.007 1.08-1.74.074-1.062-.989-2.07-.824-6.026l3.828-.623z"/><path fill="#F0EFEF" d="M23.82 15.436c.293 1.868.97 4.633-.257 5.989.055.256.092.622.018 1.044-.036.22-.11.458-.201.714-.183.44-.257 1.08-.312 1.465-.238 1.52-.238 1.594-.348 4.03l-1.099-.019s-.128-1.758-.512-2.692c-.22-.531-.678-.99-.715-1.703-.036-.55.348-1.649 1.264-1.612-.055-2.216-1.08-1.777-1.355-6.392l3.517-.824zM17.08 5.71s.402.128.842.165c.44.036.916 0 1.337-.018.879-.074 2.124-.165 2.949.31 0 0 .458-.146.952-.11.22.02.44.202.696.276.806.201 1.575 1.538 1.227 2.747-.036.092-.293 0-.586.092.055.256.092.842-.201 1.465-.312.623-.715 1.429-.642 2.967-1.923-.092-2.783-.22-4.688-.311-.165-.678-.275-1.356-.293-1.704.256-.128.402-.238.604-.458-.55.092-.77.055-1.099-.128-.33-.183-.916-.769-1.209-1.154-.036-.036-.238.568-.696.587-.165-.239.531-.916.403-1.173-.458-.934.403-3.553.403-3.553z"/><path fill="#010101" d="M23.966 13.915s.036.66.036.825c0 .183.147.732.165.989-.201.348-1.08 1.135-2.674 1.428-1.575.33-3.663-2.143-3.663-2.143.055-.238.238-.934.367-1.3a.581.581 0 00.054-.165c.165-.238 5.715.366 5.715.366z"/><path fill="#F0EFEF" d="M23.563 13.97c0 .458.073.788.128 1.081.092.531.238.88.238 1.227 0 1.062-1.392.88-2.564.916-1.575.33-2.912-2.143-2.912-2.143.11-.421.183-.897.348-1.3.018-.22.055-.495.073-.623a46.8 46.8 0 014.726.22c.036.201 0 .55-.037.622z"/><path fill="#010101" d="M21.805 16.333s-.971-2.161-3.883-1.52c-.696 1.96-1.63 4.212-1.026 6.648-.604.825-1.3 1.283-1.3 2.803s.073 1.776.073 1.776l2.143.11s.696-.897.97-1.868c.074-.275.147-.77.092-1.337.073-.11.385-.366.421-.86 0 0 1.044-.55 1.649-1.887.568-1.21.421-2.253.86-3.865z"/><path fill="#F0EFEF" d="M21.805 16.333c-.055-.201-.788-2.18-3.499-1.593-1.593 4.249-1.007 6.007-.769 6.776-1.08 1.374-1.575 1.667-1.355 4.451h1.429c.659-1.044.805-1.429.842-2.802 0-.055-.201.11-.348.293.11-.568.421-.678.66-1.026.11-.146.2-.366.2-.66 1.283-.86 1.76-1.94 2.034-3.058.22-.77.476-2.033.806-2.381z"/><path fill="#010101" d="M17.28 13.384s.495.019.935.165c.421.147.421.238.586.421.165.184.568.458.495.733-.037.147-.129.183-.257.311-.055.055-.458.495-.55.55-.054.036-.128.091-.183.128l-.274.183c-.183.092-.312.147-.513.128 0 0-.458-.018-.751-.33 0 0-.037-.146.037-.219 0 0-.385-.33-.495-.55-.11-.22-.11-.53-.037-.695.037-.165.751-.623 1.008-.825zm.459 17.821l-.055.458s-.165.202-1.392.183c-1.246-.018-1.575-.403-1.685-.604l-.073-.476s.238-.348.293-.348c.403.036 1.776.586 2.729.732.091 0 .11.037.183.055zm2.655-.934c0 .202-.018.202-.018.403.22.165.77.257 1.813.238 1.52-.036 2.93.458 4.652.165l.019-.33-.165-.018-6.1-.495-.2.037z"/><path fill="#010101" d="M21.731 30.912h.458c.99-.036 1.924.183 2.93.238.532-.018 1.191-.146 1.136-.53l-5.201-.44c-.312.348-.074.64.677.732zm-5.971-7.711c.165.11 1.283.77 3.096.678-.037.348-.018 1.026-.824 2.216-.403.586-.751 1.612-.825 2.912.019.293.184.55-.036.935.073.238.366.714.513 1.007.146.293.22.623-.751.641-.99.018-2.583-.092-2.363-.86.11-.404.421-.825.458-.99.037-.165.037-.66.348-.989.275-.916.183-1.795.128-2.62-.091-.86-.11-2.234.257-2.93zm1.704-14.927c1.3-1.74.201-3.132-1.886-2.71-.843.164-1.686.75-1.74 1.813-.275.036-.898.073-1.21 1.208-.237.88-.366 1.044-.787 1.484-.275.311.018.952.22 1.41.678 1.576 2.765 1.722 4.176 2.913.476-.129.97-.66 1.117-1.008-1.19-1.41-.934-1.96-1.41-2.692.513-.183 1.685-.898 1.52-2.418z"/><path fill="#F0EFEF" d="M17.207 8.164c.074-.11.202-.348.257-.44.018-.018.22.33.238.312.495-.806.623-1.978.055-2.088a3.246 3.246 0 01-.568-.147c-.366-.128-.696-.128-1.282-.018-.806.147-1.612.733-1.612 1.575 0 .055.568.22.733.898-.275-.385-.751-.806-1.319-.44-.604.385-.293 1.264-1.099 2.18-.275.311-.238.677.055 1.41.476 1.154 2.73 1.777 3.956 2.876.293-.129.495-.422.641-.641-.824-.861-1.154-1.667-1.392-2.253-.293-.678-.622-1.063-1.263-1.576.33.129.586.257.732.367.165.11.403.128.623.055.788-.275 1.209-1.374 1.245-2.07z"/><path fill="#010101" d="M25.175 8.457c-.055.696-.568.348-.843.22-.55-.238-1.099-.403-1.74-.403-.64 0-1.465.055-2.18.238-.988.275-1.281.257-1.72.037-.44-.238-1.21-.824-1.21-.824s-.018.183.165.421c.238.293.77.66 1.484.897.348.11.622.037.934-.036 1.63-.403 3.352-.476 4.798.403.074.036.33-.074.44-.238.146-.238-.128-.715-.128-.715z"/><path fill="#0A1825" d="M16.841 15.436c.147.091.33.146.531.31 0 0-.165 0-.238-.072a2.585 2.585 0 01-.293-.238z"/><path fill="#F0EFEF" d="M22.134.911c-.055-.164-.458-.458-1.392-.458-1.007 0-1.3.312-1.318.477 0 .055-.074.64-.092.879 0 0 0 .293.018.732.019.293.092.458.129.843.036.403.146.66.348.989.091.055.164.11.256.128.366.073 1.007.092 1.355 0 .202-.055.458-.403.513-.714.073-.385.147-.66.165-.898.037-.238.055-.769.073-.915.055-.403-.036-1.026-.055-1.063z"/><path fill="#010101" d="M20.211 23.55s.971.42 3.37.054c0 0-.677 3.407-.366 5.11 0 0 .311.44 2.62 1.282 0 0 1.025.257.988.77 0 0 .037.11-1.209.073-1.245-.037-2.417-.257-3.241-.257-.825 0-1.704.037-1.85-.2-.165-.22.036-.789.274-1.118.257-.348.184-.605.165-1.227-.055-1.63-1.3-3.315-.75-4.488z"/><path fill="#8AC640" d="M20.01 23.86c-.128.184.018.88.201 1.558.183.677.586 1.08.678 2.197.091 1.1.11 1.246-.202 1.887-.311.64-.403 1.227.678 1.245 1.08.019 1.667-.018 2.766.147 1.099.165 1.483.22 2.088.128.604-.091.732-.293.476-.476s-1.319-.385-1.777-.751c-.44-.33-1.685-.88-1.703-1.026-.055-.494-.073-2.29.018-2.875.092-.586.22-1.429.257-1.649.036-.22.22-.44-.092-.366-.311.073-1.483.238-2.363.183-.879-.055-.97-.256-1.025-.201z"/><path opacity=".3" fill="#010101" d="M20.633 29.52c.31.147.769.257 1.117.257 0 0-.129.604.073.97.201.367-1.465.147-1.465.147l-.073-1.3.348-.074zm4.853 1.575c.293-.091.495-.42.257-.732-.257-.312-.477-.367-.147-.385.33-.018 1.539.714 1.539.714l-.623.568-1.026-.165zm-5.531-6.52c.421.147 1.062.183 1.612.165.55-.018 1.373-.092 1.905-.275.53-.183.31.202.31.202l-.292.274s-.696.275-1.832.257c-1.337-.019-1.74-.165-1.74-.165l.037-.458zm.036.915c.422.147 1.063.184 1.612.166.55-.019 1.282-.019 1.813-.22.22-.073.092.238.092.238l-.092.165s-.714.256-1.831.238c-1.337-.018-1.575-.128-1.575-.128l-.019-.458z"/><path fill="none" d="M20.211 23.55s1.594.567 3.389.183c0 0-.696 3.278-.385 4.963 0 0 .311.44 2.62 1.282 0 0 1.025.257.988.77 0 0 .037.11-1.209.073-1.245-.037-2.417-.257-3.241-.257-.825 0-1.704.037-1.85-.201-.165-.22.036-.788.274-1.118.257-.348.184-.604.165-1.227-.055-1.611-1.3-3.296-.75-4.469z"/><path fill="none" d="M20.211 23.55s1.594.549 3.389.164c0 0-.696 3.297-.385 4.982 0 0 .311.44 2.62 1.282 0 0 1.025.257.988.77 0 0 .037.11-1.209.073-1.245-.037-2.436-.385-3.241-.257-.861.147-1.704.092-1.85-.201-.128-.238.036-.788.274-1.118.257-.348.184-.604.165-1.227-.055-1.611-1.3-3.296-.75-4.469z"/><path fill="#010101" d="M18.783 12.652c0 .128 1.428.842 2.216.989.787.146 2.436 0 2.692-.055l-.037.256s-1.96.293-3.461-.11c-1.502-.403-1.337-.494-1.337-.494l-.073-.586z"/><path fill="#F0EFEF" d="M15.724 28.275c.22.11 1.007.311 1.52.201.073-.018 0-1.264.202-1.831.293-.788.769-1.429.989-2.82a11.476 11.476 0 01-2.107-.422c-.586 1.795-.384 3.333-.604 4.872zm1.227 1.154c.128.036.22.183.257.091.073-.165-.129-.476-.147-.696v-.018c-.165-.146-1.282-.165-1.209-.092-.128.239-.33.202-.403.678-.036.238.257.037.531.018-.494.33-1.062.751-1.153 1.118-.11.512.073.659.622.934.477.11 1.044.128 1.484.11.494-.092.586-.33.44-.66-.22-.494-.367-1.135-.422-1.483z"/><path fill="#010101" d="M17.153 5.637c.604.348 1.447.256 1.758.238.073 0 .806-.128.842-.11.074.018.074.073.074.073s-.275.147-.898.183c-.586.037-1.282 0-1.666-.183-.458-.201-.11-.201-.11-.201zm6.227.348c.11.073.824.348 1.135.677.275.294.129.275.074.202-.074-.092-.641-.476-.861-.568-.22-.091-.495-.256-.495-.293 0-.037.147-.018.147-.018z"/><path fill="#F0EFEF" d="M17.06 13.586c.532-.037 1.082.091 1.43.458.183.183.476.384.44.567 0 .055-.11.202-.202.312a4.37 4.37 0 01-.275.293c-.073.055-.33.256-.385.293-.055.036-.128.128-.183.146-.183.092-.384.019-.568-.073-.183-.091.037-.11-.164-.256-.495-.348-.77-.586-.568-1.264.018-.128.22-.275.476-.476z"/><path opacity=".4" fill="#010101" d="M12.39 9.391c-1.648.66-5.842 2.748-7.033 3.389.99.623 1.447 2.124 1.594 3.645.018.146.036.274.055.42.018.13.036.22.055.276 0 .018 0 .055.018.073 1.08-2.949 4.945-6.063 5.092-6.3.073-.11-.092-.587.165-1.045.33-.586.97-.842.055-.458zm3.92 13.829c.843-1.685.86-3.297.843-5.184 0-.787.567-1.904.274-1.593-1.099 1.227-3.864 3.535-5.86 3.663 2.802-.092 3.9 1.319 4.743 3.114z"/><path fill="#010101" d="M3.746 14.337c1.044-.751 6.447-3.627 7.747-4.03 1.3-.421.897-.916.897-.916s-5.274 2.271-8.425 4.231"/><path opacity=".4" fill="#010101" d="M19.13 9.043c-.42-.164-.75.33-.64.806.11.477 1.099 1.008 1.044 2.748-.037 1.428-.348 2.014-.348 2.014l-.696-.879s-.11-1.978-.348-2.27c-.238-.294-.99-.825-1.283-1.1-.293-.275.33-.64.294-1.154-.037-.494.31-1.483.31-1.483l1.668 1.318zm2.547 7.803c-.037 1.373.274 3.407.402 4.377.129.971.294 1.044 0 1.484a16.208 16.208 0 00-.677 1.117l-1.264-.11s1.007-1.282 1.062-1.52c.055-.238-.513-2.051-.513-2.051l.99-3.297zM19.24 4.025c.257.568.568.824 1.063.989.293.11 1.447.256 1.905-.256.201-.239.073-.88.073-.88l-1.044.843-1.41-.256-.165-.422-.421-.018z"/><path fill="#8AC640" stroke="#010101" stroke-linejoin="round" stroke-width=".143" d="M19.35 5.289c.477.311 1.667.604 1.997.66.33.072.86-.349 1.117-.459.275-.128.751-.201 1.3.293.055.055-.128.293-.128.293-.018-.018-.128-.018-.275-.091a.828.828 0 00-.494-.11c-.916.11-1.062.421-1.868.238s-1.008-.33-1.795-.293"/><path fill="#8AC640" d="M19.186 5.344c.604.256 1.776.53 2.106.604.33.073.86-.256 1.117-.421.458-.293 1.044-.055 1.319.256.183.202.256.33.256.385 0 .073-.22 0-.22 0-.128-.055-.274-.073-.384-.147-.147-.073-.293-.183-.513-.164-.916.11-1.099.42-1.886.238-.788-.184-.99-.348-1.832-.294"/><path fill="#010101" d="M16.347 22.45c-.037-.036.036-.073 0-.073-.238 0-.568-.183-.751-.44-.788-1.135-1.942-1.886-4.03-1.83-3.132.072-4.377-1.21-4.615-3.664-.128-1.337-.495-2.637-1.246-3.37l-.44.275c.843.732 1.118 1.923 1.301 3.553.293 2.454 2.271 3.59 4.579 3.626 2.4.037 3.26.532 4.158 1.74.293.385.622.513.879.568l.165-.385z"/><path opacity=".4" fill="#010101" d="M24.845 10.674c.055.274.202.805.495 1.062.128.128.146.165.036.165-.11 0-.916-.037-.916-.037l-.22-.385.605-.805z"/></svg>