<svg width="32" height="32" viewBox="0 0 40 40" xmlns="http://www.w3.org/2000/svg"><path d="M2.681 9.848c-3.506 5.039-3.07 11.594-.391 16.949.063.128.13.254.196.381.042.08.082.162.125.24.025.048.052.094.078.14a22.924 22.924 0 00.395.688l.146.24c.097.156.196.31.297.464.042.066.083.131.127.195a21.887 21.887 0 00.441.636c.024.033.05.065.073.098.127.176.259.35.392.521l.147.188c.119.149.24.297.362.444l.138.165c.165.194.333.387.505.576l.01.011.02.02a24.905 24.905 0 001.085 1.109c.056.053.112.107.168.158.184.174.37.344.56.51.004.004.006.007.01.008.031.029.065.056.097.083.167.145.337.29.509.43l.211.169a22.215 22.215 0 001.302.97c.016.01.03.022.047.033.152.105.308.206.463.306l.2.134c.239.15.48.3.725.444l.2.112c.18.104.36.206.544.305.098.054.2.104.3.155.13.068.258.137.39.202l.09.044c.052.025.106.05.159.077.203.097.409.192.616.285.044.02.087.04.13.058.238.104.478.204.72.3.058.023.117.045.175.069.224.086.451.17.679.251l.085.03c.25.087.503.168.757.247l.183.055c.259.078.514.17.781.22 16.955 3.092 21.88-10.188 21.88-10.188-4.136 5.388-11.478 6.81-18.435 5.227-.263-.06-.519-.141-.776-.218l-.194-.058a21.7 21.7 0 01-.747-.244l-.103-.036c-.222-.078-.44-.16-.66-.245l-.184-.072a20.59 20.59 0 01-.712-.296c-.048-.02-.094-.042-.142-.064a27.56 27.56 0 01-.6-.278l-.174-.084c-.156-.076-.31-.157-.464-.236-.103-.054-.208-.106-.31-.162-.188-.1-.373-.205-.556-.312l-.189-.105a26.5 26.5 0 01-.724-.444c-.066-.042-.13-.087-.196-.13a18.445 18.445 0 01-.516-.343c-.056-.038-.11-.08-.166-.117a26.668 26.668 0 01-.487-.352 21.258 21.258 0 01-.852-.665 26.259 26.259 0 01-.549-.461 26.433 26.433 0 01-.636-.574l-.162-.157c-.14-.133-.278-.268-.413-.406l-.163-.161a22.975 22.975 0 01-.508-.538l-.025-.027a20.454 20.454 0 01-1.02-1.205 9.596 9.596 0 01-.136-.169 23.566 23.566 0 01-.429-.57c-3.862-5.267-5.25-12.534-2.163-18.5"/><path d="M13.564 5.603c-2.536 3.648-2.398 8.532-.42 12.391.332.647.704 1.274 1.121 1.872.38.544.801 1.192 1.305 1.63.183.2.374.397.57.59l.15.149c.188.183.381.364.58.539.009.007.016.015.024.02l.006.006c.22.193.447.379.678.561l.154.12c.232.178.468.353.71.52.008.004.014.01.02.015.108.074.217.143.325.214.052.034.101.07.154.101.172.11.348.219.526.323l.074.042c.154.089.31.176.466.26.054.032.11.058.165.087l.326.169.048.022c.224.11.45.216.68.316l.15.061c.183.078.37.155.556.226l.238.088c.17.063.34.12.511.178l.231.074c.244.075.485.17.739.213 13.09 2.17 16.113-7.91 16.113-7.91-2.725 3.923-8 5.796-13.63 4.334-.25-.066-.497-.137-.741-.214-.075-.023-.15-.048-.223-.072a15.55 15.55 0 01-1.311-.491c-.05-.022-.102-.041-.15-.064-.232-.1-.46-.207-.684-.317-.115-.057-.229-.116-.342-.174l-.198-.102a16.64 16.64 0 01-.433-.245c-.034-.02-.07-.037-.104-.058a17.49 17.49 0 01-.525-.32c-.053-.035-.104-.072-.158-.106l-.34-.225c-.24-.166-.476-.34-.707-.518l-.16-.125c-2.464-1.946-4.417-4.605-5.346-7.62-.973-3.127-.763-6.636.923-9.485"/><path d="M22.717 2.43c-1.495 2.2-1.642 4.932-.605 7.362 1.094 2.578 3.335 4.601 5.951 5.56.108.04.215.076.325.113l.143.045c.154.049.307.105.467.135 7.228 1.397 9.188-3.71 9.71-4.46-1.717 2.472-4.603 3.065-8.145 2.206a9.263 9.263 0 01-.857-.265 10.452 10.452 0 01-1.017-.422 10.573 10.573 0 01-1.784-1.089c-3.169-2.404-5.137-6.99-3.07-10.727"/></svg>