<svg viewBox="0 0 32 32" xmlns="http://www.w3.org/2000/svg"><path fill="none" stroke="#000" stroke-linecap="round" stroke-linejoin="round" d="M26.496 7.51v21.5c0 .831-.669 1.5-1.5 1.5h-18c-.83 0-1.5-.669-1.5-1.5v-26c0-.831.67-1.5 1.5-1.5h13.5z"/><path d="M5 24.004v5c0 1.108.892 2 2 2h18c1.108 0 2-.892 2-2v-5H5zm17.518.978a.5.5 0 01.382.207l2.098 2.801V25.5a.5.5 0 01.492-.508.5.5 0 01.508.508v3.988a.5.5 0 01-.902.301l-.014-.018h-.002l-2.082-2.779v2.5a.5.5 0 11-1 0V25.53a.5.5 0 01.469-.54.5.5 0 01.05 0v-.007zm-13.026.016a.5.5 0 01.508.508v3.002a.5.5 0 01-.016.133A1.503 1.503 0 018.5 30c-.822 0-1.5-.678-1.5-1.5a.5.5 0 111 0c0 .286.214.5.5.5.286 0 .5-.214.5-.5v-2.992A.5.5 0 019.492 25v-.002zm2.95.002a.5.5 0 01.05 0 .5.5 0 01.035 0h1.965a.5.5 0 110 1h-2c-.285 0-.5.214-.5.5 0 .286.215.5.5.5a.5.5 0 01.035 0h.965a.5.5 0 01.108.01 1.505 1.505 0 011.392 1.49c0 .787-.622 1.433-1.396 1.488a.5.5 0 01-.104.012h-2a.5.5 0 110-1h2c.286 0 .5-.214.5-.5 0-.286-.214-.5-.5-.5h-1a.5.5 0 01-.094-.01 1.504 1.504 0 01-1.406-1.49c0-.784.617-1.428 1.387-1.488A.5.5 0 0112.44 25zm6.058 0c1.375 0 2.5 1.125 2.5 2.5S19.875 30 18.5 30a2.508 2.508 0 01-2.5-2.5c0-1.375 1.125-2.5 2.5-2.5zm0 1c-.834 0-1.5.666-1.5 1.5s.666 1.5 1.5 1.5 1.5-.666 1.5-1.5-.666-1.5-1.5-1.5z"/><path stroke="#000" stroke-linecap="round" stroke-linejoin="round" d="M26.496 7.51h-4.5c-.83 0-1.5-.67-1.5-1.5v-4.5"/><path d="M13.508 10.01c-1.1 0-2 .9-2 2v1c0 .563-.438 1-1 1a.5.5 0 00-.35.861.5.5 0 00.217.12.5.5 0 00.098.016.987.987 0 011.035 1v1.001c0 1.099.9 2 2 2a.5.5 0 100-1c-.563 0-1-.438-1-1v-1.001c0-.598-.273-1.132-.694-1.5a1.99 1.99 0 00.694-1.5v-1c0-.562.437-1 1-1a.5.5 0 100-1zm3.933 0a.5.5 0 00.051 1c.563 0 1 .437 1 1v1c0 .599.273 1.133.694 1.5-.42.368-.694.902-.694 1.5v1c0 .563-.437 1-1 1a.5.5 0 100 1c1.1 0 2-.9 2-2v-1c0-.562.438-1 1-1a.5.5 0 00.324-.113.5.5 0 00-.324-.887c-.562 0-1-.437-1-1v-1c0-1.1-.9-2-2-2a.5.5 0 00-.05 0zM15.5 12.006a.5.5 0 000 1 .5.5 0 000-1zM15.492 14a.5.5 0 00-.492.506v3a.5.5 0 101 0v-3a.5.5 0 00-.508-.506z"/></svg>