<svg width="32" height="32" xmlns="http://www.w3.org/2000/svg"><path d="M19.948 5.12c-.3-.008-.563.108-.698.44-.23.557.342 1.102.548 1.387.142.199.327.42.43.643.067.147.077.295.134.45.143.382.37.818.553 1.173.092.179.195.367.313.527.072.097.195.142.215.293-.12.17-.128.432-.196.647-.304.962-.19 2.16.253 2.87.138.22.46.687.9.51.385-.157.3-.645.41-1.078.025-.094.01-.167.06-.232v.02c.115.235.233.47.35.703.262.42.725.857 1.115 1.154.203.153.363.418.625.508v-.02h-.02c-.05-.08-.13-.113-.195-.175a4.328 4.328 0 01-.448-.51c-.36-.495-.68-1.017-.957-1.563-.137-.262-.258-.552-.372-.819-.045-.106-.045-.26-.138-.316-.128.198-.312.356-.41.588-.155.37-.177.822-.235 1.29-.035.013-.02.003-.038.02-.272-.068-.37-.347-.47-.587-.254-.608-.304-1.588-.077-2.285.058-.183.32-.753.215-.92-.05-.168-.22-.263-.312-.391a2.955 2.955 0 01-.313-.547c-.21-.475-.407-1.025-.63-1.505-.105-.23-.282-.46-.43-.665-.163-.224-.342-.39-.47-.665-.043-.095-.105-.25-.038-.35.02-.068.05-.095.118-.118.113-.087.428.028.547.078.313.13.576.255.84.43.128.085.255.248.41.295h.176c.277.063.585.017.84.097a5.04 5.04 0 011.23.585 7.584 7.584 0 012.677 2.93c.103.195.147.383.237.588.178.415.406.845.586 1.25.177.407.352.815.604 1.152.133.178.648.275.88.373.163.07.433.142.585.235.298.178.583.39.86.588.14.097.566.31.588.487-.687-.017-1.213.045-1.66.235-.128.055-.333.055-.352.215.067.073.08.183.134.272.108.173.288.405.45.528.178.132.358.275.548.393.335.202.71.32 1.035.524.19.123.383.276.568.41.092.07.152.175.272.218v-.02c-.063-.08-.077-.19-.135-.273l-.258-.257a4.175 4.175 0 00-.897-.858c-.268-.192-.865-.452-.975-.762l-.02-.02c.187-.02.41-.09.585-.137.295-.078.555-.058.857-.135.138-.04.276-.08.413-.118v-.08c-.152-.155-.262-.365-.43-.508a12.415 12.415 0 00-1.408-1.054c-.272-.173-.61-.285-.897-.43-.098-.05-.268-.075-.333-.158-.152-.192-.234-.438-.352-.662a25.78 25.78 0 01-.703-1.485c-.147-.338-.244-.673-.43-.978-.887-1.457-1.842-2.34-3.322-3.205-.315-.185-.693-.255-1.093-.35a54.93 54.93 0 00-.647-.04c-.13-.055-.268-.215-.39-.295-.307-.192-.913-.527-1.412-.535zm2.117 2.12a1.456 1.456 0 00-.352.04v.02h.02c.067.14.19.23.275.35l.192.413.02-.02c.12-.085.177-.223.177-.43-.05-.05-.057-.115-.097-.176-.057-.082-.165-.128-.235-.197zm-20.87 8.117a2.375 2.375 0 00-.63.118c-.38.115-.568.342-.568.805v4.84H1.28v-4.723l1.777 4.038c.22.503.52.682 1.107.682.591 0 .879-.18 1.099-.682L7.04 16.5v4.621h1.28v-4.84c0-.462-.186-.69-.568-.805-.91-.288-1.522-.04-1.797.583L4.13 20.163l-1.765-4.105c-.2-.468-.6-.724-1.17-.7zm15.603.002c-.506 0-2.078.06-2.078 1.28v.79c0 .56.493 1.018 1.56 1.13.12.008.24.018.36.018 0 0 1.245-.025 1.28-.018.72 0 .64.56.64.64v.64c0 .088-.02.64-.648.64H14.72v.64h3.205c.42 0 .828-.087 1.152-.24.54-.247.763-.582.763-1.022v-.916c0-.98-1.22-1.021-1.92-1.021h-1.28c-.502 0-.58-.305-.64-.64v-.64c.06-.255.173-.6.618-.64h3.222v-.64zm4.95 0c-.945.13-1.278.6-1.278 1.28v3.2c0 .623.347.998 1.062 1.193.24.068.458.095.663.095l1.425-.007h.838l.712.64h1.44l-.99-.893c.465-.192.61-.487.61-1.04V16.64c0-.68-.442-1.15-1.388-1.28zm5.132.001v4.452c0 .773.438 1.208 1.595 1.295.107.005.217.013.325.013H32v-.64h-2.957c-.66 0-.883-.278-.883-.672V15.36zm-4.37.64h1.647c.436 0 .728.35.793.64l.01 3.2c0 .22-.122.32-.122.32l-.348-.32h-1.45l.712.64H22.51c-.445 0-.695-.33-.76-.64v-3.135c0-.34.26-.705.76-.705zM8.96 17.28c.026.026 0 2.728 0 2.78.01.56.72 1.05 1.832 1.06H12.8v.042c0 .12.088.52-.64.598h-3.2v.64h3.338c.565-.017 1.79-.145 1.782-1.125 0-.017.005-3.995 0-3.995H12.8v3.2c-.02 0-1.585.005-1.9 0-.618-.01-.67-.362-.66-.497V17.28z"/></svg>