<svg width="32" height="32" xmlns="http://www.w3.org/2000/svg"><path fill="#494A48" stroke="#121211" d="M17.245 15.837c0 6.994-5.079 10.24-8.353 10.24-3.275 0-8.353-3.246-8.353-10.24S8.892.748 8.892.748s8.353 8.093 8.353 15.09z" stroke-width="1.078"/><path fill="#323824" fill-rule="evenodd" d="M8.407 5.274a.539.539 0 00-.53.547v5.427L5.838 9.21a.539.539 0 00-.886.172.539.539 0 00.126.59l2.802 2.802v3.057l-2.577-2.577a.539.539 0 00-.886.172.539.539 0 00.125.59l3.341 3.34v3.058l-2.846-2.847a.539.539 0 00-.886.172.539.539 0 00.125.59l3.608 3.609v4.033c.334.065.674.101 1.014.107h.064v-4.14l3.61-3.609a.539.539 0 00-.762-.762l-2.848 2.847v-3.057l3.341-3.341a.539.539 0 00-.762-.762l-2.58 2.577v-3.055l2.803-2.802a.539.539 0 00-.762-.762l-2.04 2.038V5.823a.539.539 0 00-.546-.546z"/><path fill="#323824" fill-rule="evenodd" stroke="#27241E" d="M8.882 5.06h0a.539.539 0 00-.53.547V30.92h0c0 .298.241.539.539.539h0a.539.539 0 00.539-.54V5.604h0a.539.539 0 00-.158-.39h0a.539.539 0 00-.389-.157z" stroke-width="1.078"/><path fill="#323824" fill-rule="evenodd" stroke="#24221D" d="M5.927 8.831h0a.539.539 0 00-.5.337h0a.539.539 0 00.125.59l2.957 2.957h0c.21.21.552.21.762 0l2.96-2.958h0a.539.539 0 000-.762h0a.539.539 0 00-.762 0L8.89 11.572 6.314 8.995h0a.539.539 0 00-.387-.164z" stroke-width="1.078"/><path fill="#323824" fill-rule="evenodd" stroke="#24221D" d="M5.388 12.871h0a.539.539 0 00-.5.336h0a.539.539 0 00.125.59l3.496 3.496h0c.21.21.552.21.762 0l3.499-3.496h0a.539.539 0 000-.762h0a.539.539 0 00-.762 0L8.89 16.15l-3.116-3.116h0a.539.539 0 00-.387-.164z" stroke-width="1.078"/><path fill="#323824" fill-rule="evenodd" stroke="#24221D" d="M5.118 17.182h0a.539.539 0 00-.499.338h0a.539.539 0 00.125.59l3.766 3.765h0c.21.21.552.21.762 0l3.773-3.766h0a.539.539 0 000-.762h0a.539.539 0 00-.762 0l-3.388 3.386-3.385-3.386h0a.539.539 0 00-.392-.165z" stroke-width="1.078"/></svg>