<svg width="32" height="32" xmlns="http://www.w3.org/2000/svg"><path d="M22.337 1.28a8.015 8.015 0 00-3.217.7c-.768-.258-2.04-.697-3.567-.38a5.683 5.683 0 00-2.458 1.085c-1.235-.595-2.525-.96-3.878-1.02-.832-.065-4.224.32-5.442 2.11-.447.705-.895 1.6-1.087 2.688-.192.96-.192 2.05.128 4.29.192 1.534.45 2.56 1.025 4.67.065.192.385 1.217 1.345 4.034.19.51.575 1.47 1.342 2.366.513.64 1.025 1.024 1.665 1.024.832 0 1.408-.574 1.92-1.214l.115-.133a.84.84 0 00-.115.26c-.128.64.64 1.152 1.28 1.408.512.255 1.088.32 1.535.32.575 0 1.025-.128 1.28-.19a5.71 5.71 0 001.203-.618c.022 1.635.037 3.564.077 4.007.193 1.666.64 2.816 1.473 3.456.64.512 1.792.577 1.857.577 1.15 0 2.942-.768 3.71-1.983.385-.577.513-1.09.64-1.794.128-.383.255-2.623.32-3.07.088-.708.155-1.406.223-2.083.422.11.942.227 1.507.227 1.023 0 2.368-.704 2.623-.834.512-.383 1.534-1.278 1.088-2.046-.256-.45-.64-.45-1.6-.32 0 0-1.536.19-1.666.126a1.999 1.999 0 01-.395-.243c.333-.515.627-1.024.973-1.483a26.995 26.995 0 001.537-3.52c.448-1.233.81-2.495 1.085-3.777.45-1.92.578-2.815.32-3.84-.51-1.792-2.368-3.328-3.135-3.775-.512-.258-1.79-1.025-3.71-1.025zm0 1.28c1.6 0 2.688.64 3.263.895.705.385 2.305 1.665 2.432 2.88.065.705.128 1.41-.32 3.265-.255.895-.512 2.048-1.09 3.648-.32.895-.702 1.984-1.47 3.33-.02.032-.042.067-.062.102.075-.27.128-.487.128-.487.127-.64.127-1.153.062-1.92-.065-.386-.128-1.346-.128-1.73 0-.19.19-2.176.256-2.88.064-1.15-.64-2.56-.83-2.816-.96-1.472-1.473-2.302-2.498-3.134a10.053 10.053 0 00-1.288-.946c.47-.115.99-.207 1.545-.207zm-5.655.262c.835.02 1.543.25 2.07.443 1.345.448 2.175 1.15 2.56 1.47.833.705 1.28 1.41 2.24 2.882.071.141.253.438.397.853-1.309-.12-2.179.34-2.702.81-.767.64-.704 1.6-.64 2.303 0 .512.13 1.154 1.09 3.33.383.96.766 1.982 1.15 2.687.197.387.434.751.708 1.088a1.765 1.765 0 00-.452.32c-.383.447-.448.897-.576 1.73-.127.64-.254 1.982-.32 3.07 0 .447-.19 2.625-.254 2.945-.193.64-.258.96-.513 1.344-.448.703-1.855 1.28-2.688 1.216-.255 0-.64 0-.96-.256-.704-.512-.96-1.664-1.024-2.56-.065-.64 0-5.25-.128-6.274-.065-.256-.128-.896-.64-1.343-.215-.18-.66-.273-1.08-.335.005-.215.018-.43.057-.625.063-.385.19-.577.32-.897.063-.19.19-.446.32-.766.576-1.792.446-4.162.126-5.634-.063-.128-.32-1.15-1.216-1.726-.96-.577-1.984-.257-2.56-.064a3.755 3.755 0 00-.707.287c.04-.268.075-.538.133-.8.254-1.28.512-2.368 1.344-3.455.896-1.09 1.918-1.793 3.071-1.985.29-.046.582-.065.875-.058zm-7.902.113c.15-.003.277 0 .373.01 1 .053 1.957.288 2.907.688-.118.13-.235.26-.347.4-1.088 1.28-1.346 2.622-1.6 3.967a14.15 14.15 0 00-.13 4.928l-.126 1.215c-.064.64-.194 1.857.51 3.137.228.397.503.764.82 1.092A32.823 32.823 0 019.152 20.8c-.384.448-.704.768-.96.768-.064 0-.32-.128-.704-.576-.705-.767-.96-1.6-1.088-1.92-.768-2.304-1.215-3.777-1.28-3.97-.512-2.047-.768-3.07-1.025-4.542-.32-2.048-.32-3.072-.128-3.903A6.568 6.568 0 014.8 4.545c.785-1.232 2.94-1.582 3.98-1.61zM23.465 9.68c.205 0 .427.026.662.075-.007.598-.254 2.472-.254 2.725 0 .512.127 1.535.127 1.92.065.705.065 1.088 0 1.6 0 0-.095.458-.192.783-.298-.673-.628-1.475-1.025-2.383-.96-2.175-1.023-2.623-1.023-2.943 0-.45 0-1.024.383-1.28.36-.32.797-.493 1.322-.497zm-9.935.188a.944.944 0 01.357.115c.513.257.64.897.64.897.32 1.408.448 3.52-.064 4.928-.063.255-.19.447-.256.64-.127.32-.254.64-.384 1.215a6.615 6.615 0 00-.055.707c-.443-.092-.86-.25-1.16-.45-.513-.255-.895-.705-1.15-1.217-.45-.96-.385-1.856-.32-2.366l.125-1.474a15.668 15.668 0 01-.123-2.16c.35-.308.764-.532 1.213-.656.384-.094.805-.227 1.177-.18zm9.438.43c-.15.005-.297.029-.44.07-.255.064-.32.064-.385.192-.063.128.13.32.194.448.063 0 .256.192.51.13.193-.065.32-.193.386-.258.064-.065.32-.385.127-.512-.065-.065-.225-.08-.392-.07zm-9.583.464a.532.532 0 00-.202.055c-.063 0-.19.063-.256.19-.064.128 0 .256.066.32.127.193.32.386.64.386.064 0 .32 0 .51-.193 0 0 .194-.192.194-.383-.064-.13-.192-.192-.384-.257-.146-.047-.36-.132-.568-.118zm-1.178 8.375c.393.21.866.38 1.383.498a1.896 1.896 0 01-.533.653c-.45.32-1.024.512-1.6.64-.13 0-.192.064-.32.064-.31.088-.61.186-.814.398a51.11 51.11 0 001.884-2.253zm12.34.513c.28.21.556.365.796.448.384.127.704.127 1.857 0-.192.19-.768.51-1.6.64-.535.052-1.2-.076-1.74-.23.05-.363.107-.57.203-.668.034-.032.247-.097.484-.19zm-9.637.192c.133.023.238.04.257.06.128.13.193.45.193.578.008.11.013.387.017.58-.527.617-1.374.96-1.555 1.02-.255.128-1.022.255-1.79 0 .64-.192 1.28-.383 1.79-.768.448-.32.833-.83 1.088-1.47z"/></svg>