<svg width="36" height="36" xmlns="http://www.w3.org/2000/svg" xmlns:xlink="http://www.w3.org/1999/xlink"><defs><linearGradient id="b" x1="1.265" x2="20.978" gradientUnits="userSpaceOnUse" y1="5.786" y2="14.978"><stop offset="0%" stop-color="#FFF" stop-opacity=".2"/><stop offset="100%" stop-color="#FFF" stop-opacity="0"/></linearGradient><path id="a" d="M12 1l-6.764.738L0 8.498 12 23 24 8.498l-5.236-6.76z"/></defs><g transform="scale(1.5)"><use fill="#FDB300" xlink:href="#a"/><path fill="#EA6C00" d="M0 8.498L12 23 4.86 8.498zm19.14 0L12 23 24 8.498z"/><path fill="#FDD231" d="M5.236 1.738l-.375 6.76L12 1zm13.904 6.76l-.376-6.76L12 1z"/><path fill="#FDAD00" d="M19.14 8.498H24l-5.236-6.76zM0 8.498h4.86l.376-6.76z"/><path fill="#FEEEB7" d="M12 1L4.86 8.498h14.28z"/><path fill="#FDAD00" d="M4.86 8.498L12 23l7.14-14.502z"/><use fill="url(#b)" xlink:href="#a"/></g></svg>