<svg width="36" height="36" xmlns="http://www.w3.org/2000/svg"><path fill="#8ED6FB" d="M32.988 27.59L18.63 35.72v-6.331l8.933-4.92 5.425 3.123zm.984-.888V9.717l-5.254 3.038V23.67l5.251 3.03zm-30.96.889l14.344 8.122v-6.325l-8.935-4.92zm-.984-.89V9.718l5.254 3.038V23.67zm.616-18.084L17.37.281v6.12l-9.436 5.19-.076.042zm30.707 0L18.63.281v6.12l9.436 5.187.076.042 5.214-3.013z"/><path fill="#1C78C0" d="M17.37 27.948L8.542 23.09v-9.613l8.828 5.085zm1.26 0l8.828-4.852v-9.618l-8.828 5.085zM9.14 12.375L18 7.498l8.86 4.877L18 17.483l-8.86-5.108z"/></svg>