<svg width="36" height="36" xmlns="http://www.w3.org/2000/svg"><path fill="#9B5C8F" d="M3.341 0h29.303A3.354 3.354 0 0136 3.356V14.54a3.354 3.354 0 01-3.356 3.356H22.136l1.442 3.532-6.343-3.532H3.355A3.354 3.354 0 010 14.54V3.356A3.342 3.342 0 013.341 0z"/><path fill="#FFF" d="M2.05 3.059c.205-.279.512-.425.922-.454.746-.059 1.17.293 1.273 1.054.454 3.058.951 5.648 1.478 7.77l3.205-6.102c.293-.556.659-.849 1.098-.878.644-.044 1.039.366 1.2 1.229.366 1.946.834 3.6 1.39 5.005.38-3.717 1.024-6.395 1.932-8.049.22-.41.541-.614.965-.644a1.27 1.27 0 01.922.293c.278.22.425.497.454.834a1.27 1.27 0 01-.146.703c-.571 1.053-1.04 2.824-1.42 5.282-.366 2.386-.497 4.244-.41 5.576.03.366-.029.688-.175.966-.176.322-.44.497-.776.527-.38.029-.775-.147-1.156-.542-1.36-1.39-2.444-3.468-3.234-6.234a274.827 274.827 0 00-2.107 4.215c-.864 1.653-1.595 2.502-2.21 2.546-.395.03-.732-.307-1.024-1.01-.747-1.917-1.552-5.62-2.415-11.107-.059-.38.03-.717.234-.98zM33.5 5.356c-.527-.922-1.303-1.478-2.342-1.697a3.841 3.841 0 00-.79-.088c-1.405 0-2.546.731-3.439 2.195-.76 1.244-1.141 2.62-1.141 4.127 0 1.127.234 2.092.702 2.897.527.922 1.303 1.478 2.342 1.698.278.058.541.088.79.088 1.42 0 2.56-.732 3.439-2.196A7.842 7.842 0 0034.2 8.24c.015-1.141-.234-2.093-.702-2.883zM31.655 9.41c-.205.966-.57 1.683-1.112 2.166-.425.38-.82.541-1.186.468-.35-.073-.643-.38-.863-.951a3.714 3.714 0 01-.263-1.332c0-.366.029-.732.102-1.068.132-.6.38-1.186.776-1.742.483-.717.995-1.01 1.522-.907.35.073.643.38.863.951.176.454.263.907.263 1.332 0 .38-.029.746-.102 1.083zm-7.317-4.054c-.527-.922-1.317-1.478-2.342-1.697a3.841 3.841 0 00-.79-.088c-1.405 0-2.546.731-3.439 2.195-.76 1.244-1.141 2.62-1.141 4.127 0 1.127.234 2.092.702 2.897.527.922 1.303 1.478 2.342 1.698.278.058.541.088.79.088 1.42 0 2.56-.732 3.439-2.196a7.842 7.842 0 001.141-4.14c0-1.141-.234-2.093-.702-2.883zM22.479 9.41c-.205.966-.57 1.683-1.112 2.166-.424.38-.82.541-1.185.468-.351-.073-.644-.38-.864-.951a3.714 3.714 0 01-.263-1.332c0-.366.03-.732.102-1.068.132-.6.38-1.186.776-1.742.483-.717.995-1.01 1.522-.907.351.073.644.38.863.951.176.454.264.907.264 1.332.014.38-.03.746-.103 1.083z"/></svg>