<svg width="64" height="64" xmlns="http://www.w3.org/2000/svg"><path d="M31 1C13.875 1 0 14.875 0 32s13.875 31 31 31 31-13.875 31-31S48.125 1 31 1zm16 52.7C42.513 57.013 36.988 59 31 59c-5.987 0-11.512-1.988-16-5.3V52c0-4.412 3.587-8 8-8 1.387 0 3.438 1.425 8 1.425 4.575 0 6.6-1.425 8-1.425 4.412 0 8 3.587 8 8v1.7zm3.825-3.438C49.975 44.463 45.038 40 39 40c-2.563 0-3.8 1.425-8 1.425S25.575 40 23 40c-6.037 0-10.975 4.463-11.825 10.262C6.737 45.45 4 39.05 4 32 4 17.113 16.113 5 31 5s27 12.113 27 27c0 7.05-2.737 13.45-7.175 18.262zM31 15c-6.075 0-11 4.925-11 11s4.925 11 11 11 11-4.925 11-11-4.925-11-11-11zm0 18c-3.862 0-7-3.138-7-7s3.138-7 7-7c3.863 0 7 3.138 7 7s-3.138 7-7 7z"/></svg>